# This file uses centimeters as units for non-parametric coordinates.

mtllib TempA_ArtFrame02_straight.mtl
g default
v -1.000000 0.000000 0.000000
v -1.000000 0.023334 -0.045256
v -1.000000 0.000000 -0.097608
v -1.000000 0.018054 -0.008675
v -1.000000 0.007942 -0.092057
v 0.000000 0.000000 0.000000
v 0.000000 0.023334 -0.045256
v 0.000000 0.000000 -0.097608
v -0.000000 0.018054 -0.008675
v 0.000000 0.007942 -0.092057
vt 1.247415 0.210878
vt 1.391321 0.210860
vt 1.055589 0.210901
vt 1.392192 0.786151
vt 1.248286 0.786169
vt 1.017858 0.210905
vt 1.056460 0.786192
vt 1.018729 0.786197
vt 1.469312 0.210851
vt 1.470183 0.786142
vn 0.000000 0.888809 0.458278
vn 0.000000 0.433096 0.901348
vn 0.000000 0.433096 0.901348
vn 0.000000 0.888809 0.458278
vn 0.000000 0.572913 -0.819616
vn 0.000000 0.572913 -0.819616
vn 0.000000 0.913381 -0.407105
vn 0.000000 0.913381 -0.407105
vn 0.000000 0.992726 -0.120392
vn 0.000000 0.992726 -0.120392
s 1
g ArtFrame2_STRAIGHT
usemtl lambert10SG
f 4/2/1 1/9/2 6/10/3 9/4/4
f 8/8/5 3/6/6 5/3/7 10/7/8
f 2/1/9 4/2/1 9/4/4 7/5/10
f 5/3/7 2/1/9 7/5/10 10/7/8
