# This file uses centimeters as units for non-parametric coordinates.

mtllib TempA_Glass_P_01.mtl
g default
v -1.000000 3.000000 -1.000000
v 0.000000 3.000000 -1.000000
v 0.000000 1.000000 -1.000000
v -1.000000 1.000000 -1.000000
v -0.013012 1.000000 -0.986988
v -0.986988 1.000000 -0.986988
v 0.000000 3.000000 0.000000
v -1.000000 3.000000 0.000000
v -1.000000 1.000000 0.000000
v 0.000000 1.000000 0.000000
v -0.986988 1.000000 -0.013012
v -0.013012 1.000000 -0.013012
v -0.013012 3.000000 -0.986988
v -0.986988 3.000000 -0.986988
v -0.986988 3.000000 -0.013012
v -0.013012 3.000000 -0.013012
v 0.000000 2.979350 0.000000
v -1.000000 2.979350 0.000000
v -1.000000 2.979350 -1.000000
v 0.000000 2.979350 -1.000000
v -0.013012 2.979350 -0.013012
v -0.013012 2.979350 -0.986988
v -0.986988 2.979350 -0.986988
v -0.986988 2.979350 -0.013012
vt 0.551504 0.518770
vt 0.714887 0.520457
vt 0.551504 0.765532
vt 0.553191 0.602149
vt 0.469812 0.357074
vt 0.469812 0.518770
vt 0.469812 0.603836
vt 0.306429 0.602149
vt 0.550097 0.356011
vt 0.877647 0.521218
vt 0.550743 0.928292
vt 0.715950 0.600784
vt 0.471177 0.766595
vt 0.143670 0.601388
vt 0.470531 0.194315
vt 0.305366 0.521822
vt 0.470875 0.521520
vt 0.470875 0.601086
vt 0.469812 0.602149
vt 0.469812 0.520457
vt 0.550441 0.601086
vt 0.551504 0.602149
vt 0.551504 0.520457
vt 0.550441 0.521520
vt 0.714887 0.602149
vt 0.306429 0.520457
vt 0.468125 0.520457
vt 0.469812 0.765532
vt 0.468125 0.602149
vt 0.551504 0.603836
vt 0.551504 0.357074
vt 0.553191 0.520457
vt 0.305366 0.601388
vt 0.471177 0.928292
vt 0.470531 0.114749
vt 0.550097 0.114749
vt 0.877647 0.600784
vt 0.550743 0.766595
vt 0.550097 0.194315
vt 0.715950 0.521218
vt 0.143670 0.521822
vt 0.470531 0.356011
vn 0.000000 0.000000 -1.000000
vn 0.000000 0.000000 -1.000000
vn 0.000000 0.000000 -1.000000
vn 0.000000 0.000000 -1.000000
vn 0.000000 0.000000 1.000000
vn 0.000000 0.000000 1.000000
vn 0.000000 0.000000 1.000000
vn 0.000000 0.000000 1.000000
vn 1.000000 0.000000 0.000000
vn 1.000000 0.000000 0.000000
vn 1.000000 0.000000 0.000000
vn 1.000000 0.000000 0.000000
vn -1.000000 0.000000 0.000000
vn -1.000000 0.000000 0.000000
vn -1.000000 0.000000 0.000000
vn -1.000000 0.000000 0.000000
vn 0.000000 0.000000 1.000000
vn 0.000000 0.000000 1.000000
vn 0.000000 0.000000 1.000000
vn 0.000000 0.000000 1.000000
vn 0.000000 0.000000 -1.000000
vn 0.000000 0.000000 -1.000000
vn 0.000000 0.000000 -1.000000
vn 0.000000 0.000000 -1.000000
vn -1.000000 0.000000 0.000000
vn -1.000000 0.000000 0.000000
vn -1.000000 0.000000 0.000000
vn -1.000000 0.000000 0.000000
vn 1.000000 0.000000 0.000000
vn 1.000000 0.000000 0.000000
vn 1.000000 0.000000 0.000000
vn 1.000000 0.000000 0.000000
vn 0.000000 1.000000 0.000000
vn 0.000000 1.000000 0.000000
vn 0.000000 1.000000 0.000000
vn 0.000000 1.000000 0.000000
vn 0.000000 1.000000 0.000000
vn 0.000000 1.000000 0.000000
vn 0.000000 1.000000 0.000000
vn 0.000000 1.000000 0.000000
vn 0.000000 -1.000000 0.000000
vn 0.000000 -1.000000 0.000000
vn 0.000000 -1.000000 0.000000
vn 0.000000 -1.000000 0.000000
vn 0.000000 -1.000000 0.000000
vn 0.000000 -1.000000 0.000000
vn 0.000000 -1.000000 0.000000
vn 0.000000 -1.000000 0.000000
vn 0.000000 -1.000000 0.000000
vn 0.000000 -1.000000 0.000000
vn 0.000000 -1.000000 0.000000
vn 0.000000 -1.000000 0.000000
vn 0.000000 -1.000000 0.000000
vn 0.000000 -1.000000 0.000000
vn 0.000000 -1.000000 0.000000
vn 0.000000 -1.000000 0.000000
vn 0.000000 0.000000 1.000000
vn 0.000000 0.000000 1.000000
vn -1.000000 0.000000 0.000000
vn -1.000000 0.000000 0.000000
vn 0.000000 0.000000 -1.000000
vn 0.000000 0.000000 -1.000000
vn 1.000000 0.000000 0.000000
vn 1.000000 0.000000 0.000000
vn 0.000000 -1.000000 0.000000
vn 0.000000 -1.000000 0.000000
vn 0.000000 -1.000000 0.000000
vn 0.000000 -1.000000 0.000000
vn 0.000000 1.000000 0.000000
vn 0.000000 1.000000 0.000000
vn 0.000000 1.000000 0.000000
vn 0.000000 1.000000 0.000000
vn 0.000000 1.000000 0.000000
vn 0.000000 1.000000 0.000000
vn 0.000000 1.000000 0.000000
vn 0.000000 1.000000 0.000000
vn 0.000000 1.000000 0.000000
vn 0.000000 1.000000 0.000000
vn 0.000000 1.000000 0.000000
vn 0.000000 1.000000 0.000000
s 1
g TempA_Glass_P_01
usemtl initialShadingGroup
f 20/32/1 3/2/2 4/25/3 19/4/4
s 2
f 10/26/5 17/27/6 18/29/7 9/8/8
s 3
f 20/1/9 17/6/10 10/5/11 3/31/12
s 4
f 19/30/13 4/3/14 9/28/15 18/7/16
s off
f 5/40/17 22/10/18 23/37/19 6/12/20
f 11/33/21 24/14/22 21/41/23 12/16/24
f 12/42/25 21/15/26 22/39/27 5/9/28
f 6/38/29 23/11/30 24/34/31 11/13/32
f 16/17/33 15/18/34 8/19/35 7/20/36
f 8/19/37 15/18/38 14/21/39 1/22/40
f 10/26/41 9/8/42 11/33/43 12/16/44
f 3/31/45 10/5/46 12/42/47 5/9/48
f 9/28/49 4/3/50 6/38/51 11/13/52
f 4/25/53 3/2/54 5/40/55 6/12/56
s 2
f 17/27/6 7/20/57 8/19/58 18/29/7
s 4
f 1/22/59 19/30/13 18/7/16 8/19/60
s 1
f 2/23/61 20/32/1 19/4/4 1/22/62
s 3
f 7/20/63 17/6/10 20/1/9 2/23/64
s off
f 24/35/65 23/36/66 22/39/67 21/15/68
f 13/24/69 14/21/70 15/18/71 16/17/72
f 14/21/73 13/24/74 2/23/75 1/22/76
f 7/20/77 2/23/78 13/24/79 16/17/80
