# This file uses centimeters as units for non-parametric coordinates.

mtllib MMA_ThinWall_02.mtl
g default
v 0.000000 0.000000 -10.000000
v 0.000000 5.000000 -10.000000
v 0.000000 5.000000 0.000000
v 0.000000 0.000000 0.000000
vt 0.840482 0.558768
vt 0.977062 0.558768
vt 0.977062 0.695348
vt 0.840482 0.695348
vn 1.000000 0.000000 0.000000
vn 1.000000 0.000000 0.000000
vn 1.000000 0.000000 0.000000
vn 1.000000 0.000000 0.000000
s off
g MMA_ThinWall_02
usemtl lambert29SG
f 4/1/1 1/2/2 2/3/3 3/4/4
