# This file uses centimeters as units for non-parametric coordinates.

mtllib MMA_TwistedPillar_02.mtl
g default
v 0.000000 0.000000 0.000000
v 0.000000 0.000000 -1.000000
v -1.000000 5.000000 0.000000
v 0.000000 5.000000 0.000000
v -1.000000 5.000000 -1.000000
v 0.000000 5.000000 -1.000000
v -1.000000 0.000000 0.000000
v -1.000000 0.000000 -1.000000
v -0.876204 0.238095 0.098724
v 0.098724 0.238095 -0.123796
v -0.123796 0.238095 -1.098724
v -1.098724 0.238095 -0.876204
v -0.733542 0.476191 0.167426
v 0.167426 0.476191 -0.266457
v -0.266458 0.476191 -1.167426
v -1.167426 0.476191 -0.733543
v -0.579171 0.714286 0.202661
v 0.202661 0.714286 -0.420829
v -0.420829 0.714286 -1.202661
v -1.202661 0.714286 -0.579171
v -0.420829 0.952381 0.202661
v 0.202661 0.952381 -0.579171
v -0.579171 0.952381 -1.202661
v -1.202661 0.952381 -0.420829
v -0.266458 1.190476 0.167426
v 0.167426 1.190476 -0.733543
v -0.733542 1.190476 -1.167426
v -1.167426 1.190476 -0.266457
v -0.123796 1.428571 0.098724
v 0.098724 1.428571 -0.876204
v -0.876204 1.428571 -1.098724
v -1.098724 1.428571 -0.123796
v 0.000000 1.666667 0.000000
v 0.000000 1.666667 -1.000000
v -1.000000 1.666667 -1.000000
v -1.000000 1.666667 0.000000
v 0.098724 1.904762 -0.123797
v -0.123796 1.904762 -1.098724
v -1.098724 1.904762 -0.876203
v -0.876204 1.904762 0.098724
v 0.167426 2.142857 -0.266457
v -0.266458 2.142857 -1.167426
v -1.167426 2.142857 -0.733543
v -0.733542 2.142857 0.167426
v 0.202661 2.380952 -0.420829
v -0.420829 2.380952 -1.202661
v -1.202661 2.380952 -0.579171
v -0.579171 2.380952 0.202661
v 0.202661 2.619048 -0.579171
v -0.579171 2.619048 -1.202661
v -1.202661 2.619048 -0.420829
v -0.420829 2.619048 0.202661
v 0.167426 2.857143 -0.733543
v -0.733542 2.857143 -1.167426
v -1.167426 2.857143 -0.266457
v -0.266458 2.857143 0.167426
v 0.098724 3.095238 -0.876204
v -0.876204 3.095238 -1.098724
v -1.098724 3.095238 -0.123796
v -0.123796 3.095238 0.098724
v 0.000000 3.333333 -1.000000
v -1.000000 3.333333 -1.000000
v -1.000000 3.333333 0.000000
v 0.000000 3.333333 0.000000
v -0.123796 3.571429 -1.098724
v -1.098724 3.571429 -0.876203
v -0.876204 3.571429 0.098724
v 0.098724 3.571429 -0.123797
v -0.266458 3.809524 -1.167426
v -1.167426 3.809524 -0.733542
v -0.733542 3.809524 0.167426
v 0.167426 3.809524 -0.266458
v -0.420830 4.047619 -1.202661
v -1.202661 4.047619 -0.579171
v -0.579170 4.047619 0.202661
v 0.202661 4.047619 -0.420829
v -0.579171 4.285715 -1.202661
v -1.202661 4.285715 -0.420829
v -0.420829 4.285715 0.202661
v 0.202661 4.285715 -0.579171
v -0.733542 4.523810 -1.167426
v -1.167426 4.523810 -0.266457
v -0.266458 4.523810 0.167426
v 0.167426 4.523810 -0.733543
v -0.876204 4.761905 -1.098724
v -1.098724 4.761905 -0.123797
v -0.123796 4.761905 0.098724
v 0.098724 4.761905 -0.876203
vt 0.380021 0.556079
vt 0.443487 0.555965
vt 0.451373 0.572309
vt 0.387908 0.572423
vt 0.451487 0.635775
vt 0.388021 0.635889
vt 0.324442 0.572537
vt 0.260976 0.572650
vt 0.253090 0.556306
vt 0.316556 0.556192
vt 0.158834 0.229306
vt 0.158720 0.165840
vt 0.222186 0.165727
vt 0.222300 0.229192
vt 0.189624 0.556419
vt 0.197511 0.572764
vt 0.230186 0.245537
vt 0.166720 0.245650
vt 0.285765 0.229079
vt 0.293651 0.245423
vt 0.031902 0.229533
vt 0.095368 0.229420
vt 0.103254 0.245764
vt 0.039789 0.245877
vt 0.238072 0.261881
vt 0.174606 0.261995
vt 0.301537 0.261768
vt 0.111140 0.262108
vt 0.047675 0.262222
vt 0.245958 0.278225
vt 0.182492 0.278339
vt 0.309423 0.278112
vt 0.119026 0.278452
vt 0.055561 0.278566
vt 0.253844 0.294570
vt 0.190378 0.294683
vt 0.317309 0.294456
vt 0.126913 0.294797
vt 0.063447 0.294910
vt 0.261730 0.310914
vt 0.198264 0.311028
vt 0.325196 0.310800
vt 0.134799 0.311141
vt 0.071333 0.311255
vt 0.269616 0.327258
vt 0.206150 0.327372
vt 0.333082 0.327145
vt 0.142685 0.327485
vt 0.079219 0.327599
vt 0.277502 0.343603
vt 0.214036 0.343716
vt 0.340968 0.343489
vt 0.150571 0.343830
vt 0.087105 0.343943
vt 0.285388 0.359947
vt 0.221923 0.360060
vt 0.348854 0.359833
vt 0.158457 0.360174
vt 0.094991 0.360288
vt 0.293274 0.376291
vt 0.229809 0.376405
vt 0.356740 0.376178
vt 0.166343 0.376518
vt 0.102877 0.376632
vt 0.301160 0.392635
vt 0.237695 0.392749
vt 0.364626 0.392522
vt 0.174229 0.392862
vt 0.110764 0.392976
vt 0.309047 0.408980
vt 0.245581 0.409093
vt 0.372512 0.408866
vt 0.182115 0.409207
vt 0.118650 0.409320
vt 0.316933 0.425324
vt 0.253467 0.425438
vt 0.380398 0.425210
vt 0.190001 0.425551
vt 0.126536 0.425665
vt 0.324819 0.441668
vt 0.261353 0.441782
vt 0.388284 0.441555
vt 0.197887 0.441896
vt 0.134422 0.442009
vt 0.332705 0.458013
vt 0.269239 0.458126
vt 0.396170 0.457899
vt 0.205774 0.458240
vt 0.142308 0.458353
vt 0.340591 0.474357
vt 0.277125 0.474471
vt 0.404057 0.474243
vt 0.213660 0.474584
vt 0.150194 0.474698
vt 0.348477 0.490701
vt 0.285011 0.490815
vt 0.411943 0.490588
vt 0.221546 0.490929
vt 0.158080 0.491042
vt 0.356363 0.507046
vt 0.292898 0.507159
vt 0.419829 0.506932
vt 0.229432 0.507273
vt 0.165966 0.507386
vt 0.364249 0.523390
vt 0.300784 0.523504
vt 0.427715 0.523276
vt 0.237318 0.523617
vt 0.173852 0.523731
vt 0.372135 0.539734
vt 0.308670 0.539848
vt 0.435601 0.539621
vt 0.245204 0.539962
vt 0.181738 0.540075
vn -0.251268 0.000000 0.967918
vn -0.193579 0.000000 0.981085
vn -0.111965 0.000000 0.993712
vn -0.111965 0.000000 0.993712
vn 0.000000 1.000000 0.000000
vn 0.000000 1.000000 0.000000
vn 0.000000 1.000000 0.000000
vn 0.000000 1.000000 0.000000
vn 0.111965 0.000000 -0.993712
vn 0.111965 0.000000 -0.993712
vn 0.251268 0.000000 -0.967918
vn 0.193579 0.000000 -0.981085
vn 0.000000 -1.000000 0.000000
vn 0.000000 -1.000000 0.000000
vn 0.000000 -1.000000 0.000000
vn 0.000000 -1.000000 0.000000
vn 0.967918 -0.000001 0.251268
vn 0.981085 -0.000000 0.193579
vn 0.993712 -0.000000 0.111964
vn 0.993712 -0.000000 0.111964
vn -0.967918 -0.000001 -0.251268
vn -0.981085 0.000000 -0.193579
vn -0.993712 0.000000 -0.111964
vn -0.993712 0.000000 -0.111964
vn 0.111964 -0.000000 0.993712
vn 0.111964 -0.000000 0.993712
vn 0.251268 0.000000 0.967918
vn 0.193579 0.000000 0.981085
vn 0.993712 0.000000 -0.111964
vn 0.993712 0.000000 -0.111964
vn 0.967918 0.000000 -0.251268
vn 0.981085 0.000000 -0.193579
vn -0.111964 0.000000 -0.993712
vn -0.111964 0.000000 -0.993712
vn -0.251268 0.000000 -0.967918
vn -0.193579 0.000000 -0.981085
vn -0.967918 0.000000 0.251268
vn -0.981085 0.000000 0.193579
vn -0.993712 0.000000 0.111964
vn -0.993712 0.000000 0.111964
vn 0.193579 0.000000 0.981085
vn 0.251268 0.000000 0.967918
vn 0.460350 0.000000 0.887738
vn 0.407038 0.000000 0.913411
vn 0.981085 0.000000 -0.193579
vn 0.967918 0.000000 -0.251268
vn 0.887738 0.000000 -0.460350
vn 0.913412 0.000000 -0.407037
vn -0.193579 0.000000 -0.981085
vn -0.251268 0.000000 -0.967918
vn -0.460350 0.000000 -0.887738
vn -0.407037 0.000000 -0.913412
vn -0.887738 0.000000 0.460350
vn -0.913412 0.000000 0.407037
vn -0.981085 0.000000 0.193579
vn -0.967918 0.000000 0.251268
vn 0.407038 0.000000 0.913411
vn 0.460350 0.000000 0.887738
vn 0.646348 -0.000000 0.763043
vn 0.600085 -0.000000 0.799936
vn 0.913412 0.000000 -0.407037
vn 0.887738 0.000000 -0.460350
vn 0.763043 0.000000 -0.646348
vn 0.799936 0.000000 -0.600085
vn -0.407037 0.000000 -0.913412
vn -0.460350 0.000000 -0.887738
vn -0.646348 0.000000 -0.763042
vn -0.600085 0.000000 -0.799936
vn -0.763043 0.000000 0.646348
vn -0.799936 0.000000 0.600085
vn -0.913412 0.000000 0.407037
vn -0.887738 0.000000 0.460350
vn 0.600085 -0.000000 0.799936
vn 0.646348 -0.000000 0.763043
vn 0.799936 0.000000 0.600085
vn 0.763043 -0.000000 0.646348
vn 0.799936 0.000000 -0.600085
vn 0.763043 0.000000 -0.646348
vn 0.600085 0.000000 -0.799936
vn 0.646348 0.000000 -0.763043
vn -0.600085 0.000000 -0.799936
vn -0.646348 0.000000 -0.763042
vn -0.799936 0.000000 -0.600085
vn -0.763043 0.000000 -0.646348
vn -0.600085 0.000000 0.799936
vn -0.646348 0.000000 0.763043
vn -0.799936 0.000000 0.600085
vn -0.763043 0.000000 0.646348
vn 0.763043 -0.000000 0.646348
vn 0.799936 0.000000 0.600085
vn 0.913412 -0.000000 0.407037
vn 0.887738 0.000000 0.460350
vn 0.646348 0.000000 -0.763043
vn 0.600085 0.000000 -0.799936
vn 0.407038 0.000000 -0.913411
vn 0.460350 0.000000 -0.887738
vn -0.763043 0.000000 -0.646348
vn -0.799936 0.000000 -0.600085
vn -0.913412 0.000000 -0.407037
vn -0.887738 0.000000 -0.460350
vn -0.407038 0.000000 0.913411
vn -0.460350 0.000000 0.887738
vn -0.646348 0.000000 0.763043
vn -0.600085 0.000000 0.799936
vn 0.887738 0.000000 0.460350
vn 0.913412 -0.000000 0.407037
vn 0.981085 -0.000000 0.193579
vn 0.967918 -0.000000 0.251268
vn 0.460350 0.000000 -0.887738
vn 0.407038 0.000000 -0.913411
vn 0.193579 0.000000 -0.981085
vn 0.251268 0.000000 -0.967918
vn -0.887738 0.000000 -0.460350
vn -0.913412 0.000000 -0.407037
vn -0.981085 0.000000 -0.193579
vn -0.967918 0.000000 -0.251268
vn -0.193579 0.000000 0.981085
vn -0.251268 0.000000 0.967918
vn -0.460350 0.000000 0.887738
vn -0.407038 0.000000 0.913411
vn 0.967918 -0.000000 0.251268
vn 0.981085 -0.000000 0.193579
vn 0.999562 0.000000 -0.029586
vn 0.999562 -0.000000 0.029586
vn 0.251268 0.000000 -0.967918
vn 0.193579 0.000000 -0.981085
vn -0.029586 0.000000 -0.999562
vn 0.029586 0.000000 -0.999562
vn -0.967918 0.000000 -0.251268
vn -0.981085 0.000000 -0.193579
vn -0.999562 0.000000 0.029586
vn -0.999562 0.000000 -0.029586
vn 0.029586 0.000000 0.999562
vn -0.029586 0.000000 0.999562
vn -0.251268 0.000000 0.967918
vn -0.193579 0.000000 0.981085
vn 0.999562 -0.000000 0.029586
vn 0.999562 0.000000 -0.029586
vn 0.967918 0.000000 -0.251268
vn 0.981085 0.000000 -0.193579
vn 0.029586 0.000000 -0.999562
vn -0.029586 0.000000 -0.999562
vn -0.251268 0.000000 -0.967918
vn -0.193579 0.000000 -0.981085
vn -0.999562 0.000000 -0.029586
vn -0.999562 0.000000 0.029586
vn -0.967918 0.000000 0.251268
vn -0.981085 0.000000 0.193579
vn 0.251268 0.000000 0.967918
vn 0.193579 0.000000 0.981085
vn -0.029586 0.000000 0.999562
vn 0.029586 0.000000 0.999562
vn 0.981085 0.000000 -0.193579
vn 0.967918 0.000000 -0.251268
vn 0.887738 0.000000 -0.460350
vn 0.913412 0.000000 -0.407037
vn -0.193579 0.000000 -0.981085
vn -0.251268 0.000000 -0.967918
vn -0.460350 0.000000 -0.887738
vn -0.407038 0.000000 -0.913411
vn -0.981085 0.000000 0.193579
vn -0.967918 0.000000 0.251268
vn -0.887738 0.000000 0.460350
vn -0.913412 0.000000 0.407037
vn 0.460350 0.000000 0.887737
vn 0.407038 0.000000 0.913411
vn 0.193579 0.000000 0.981085
vn 0.251268 0.000000 0.967918
vn 0.913412 0.000000 -0.407037
vn 0.887738 0.000000 -0.460350
vn 0.763042 0.000000 -0.646348
vn 0.799936 0.000000 -0.600085
vn -0.407038 0.000000 -0.913411
vn -0.460350 0.000000 -0.887738
vn -0.646348 0.000000 -0.763043
vn -0.600085 0.000000 -0.799936
vn -0.913412 0.000000 0.407037
vn -0.887738 0.000000 0.460350
vn -0.763043 0.000000 0.646348
vn -0.799936 0.000000 0.600085
vn 0.646348 -0.000001 0.763043
vn 0.600085 -0.000000 0.799936
vn 0.407038 0.000000 0.913411
vn 0.460350 0.000000 0.887737
vn 0.799936 0.000000 -0.600085
vn 0.763042 0.000000 -0.646348
vn 0.600085 0.000000 -0.799936
vn 0.646348 0.000000 -0.763043
vn -0.600085 0.000000 -0.799936
vn -0.646348 0.000000 -0.763043
vn -0.799936 0.000000 -0.600085
vn -0.763043 0.000000 -0.646348
vn -0.799936 0.000000 0.600085
vn -0.763043 0.000000 0.646348
vn -0.600085 0.000000 0.799936
vn -0.646348 0.000000 0.763042
vn 0.799936 0.000000 0.600085
vn 0.763043 -0.000000 0.646348
vn 0.600085 -0.000000 0.799936
vn 0.646348 -0.000001 0.763043
vn 0.646348 0.000000 -0.763043
vn 0.600085 0.000000 -0.799936
vn 0.407037 0.000000 -0.913412
vn 0.460350 0.000000 -0.887738
vn -0.763043 0.000000 -0.646348
vn -0.799936 0.000000 -0.600085
vn -0.913412 0.000000 -0.407037
vn -0.887738 0.000000 -0.460350
vn -0.646348 0.000000 0.763042
vn -0.600085 0.000000 0.799936
vn -0.407037 0.000000 0.913412
vn -0.460350 0.000000 0.887738
vn 0.913412 -0.000000 0.407037
vn 0.887738 0.000000 0.460350
vn 0.763043 -0.000000 0.646348
vn 0.799936 0.000000 0.600085
vn 0.460350 0.000000 -0.887738
vn 0.407037 0.000000 -0.913412
vn 0.193579 0.000000 -0.981085
vn 0.251268 0.000000 -0.967918
vn -0.887738 0.000000 -0.460350
vn -0.913412 0.000000 -0.407037
vn -0.981085 0.000000 -0.193579
vn -0.967918 0.000000 -0.251268
vn -0.460350 0.000000 0.887738
vn -0.407037 0.000000 0.913412
vn -0.193579 0.000000 0.981085
vn -0.251268 0.000000 0.967918
vn 0.981085 -0.000000 0.193579
vn 0.967918 -0.000000 0.251268
vn 0.887738 0.000000 0.460350
vn 0.913412 -0.000000 0.407037
vn 0.251268 0.000000 -0.967918
vn 0.193579 0.000000 -0.981085
vn -0.029586 0.000000 -0.999562
vn 0.029586 0.000000 -0.999562
vn -0.967918 0.000000 -0.251268
vn -0.981085 0.000000 -0.193579
vn -0.999562 0.000000 0.029586
vn -0.999562 0.000000 -0.029586
vn -0.251268 0.000000 0.967918
vn -0.193579 0.000000 0.981085
vn 0.029586 0.000000 0.999562
vn -0.029586 0.000000 0.999562
vn 0.999562 0.000000 -0.029586
vn 0.999562 -0.000000 0.029586
vn 0.967918 -0.000000 0.251268
vn 0.981085 -0.000000 0.193579
vn 0.029586 0.000000 -0.999562
vn -0.029586 0.000000 -0.999562
vn -0.251268 0.000000 -0.967918
vn -0.193579 0.000000 -0.981085
vn -0.999562 0.000000 -0.029586
vn -0.999562 0.000000 0.029586
vn -0.967918 0.000000 0.251268
vn -0.981085 0.000000 0.193579
vn -0.029586 0.000000 0.999562
vn 0.029586 0.000000 0.999562
vn 0.251268 0.000000 0.967918
vn 0.193579 0.000000 0.981085
vn 0.967918 0.000000 -0.251268
vn 0.981085 0.000000 -0.193579
vn 0.999562 -0.000000 0.029586
vn 0.999562 0.000000 -0.029586
vn -0.193579 0.000000 -0.981085
vn -0.251268 0.000000 -0.967918
vn -0.460351 0.000000 -0.887737
vn -0.407038 0.000000 -0.913411
vn -0.981085 0.000000 0.193579
vn -0.967918 0.000000 0.251268
vn -0.887737 0.000001 0.460350
vn -0.913411 0.000001 0.407038
vn 0.193579 0.000000 0.981085
vn 0.251268 0.000000 0.967918
vn 0.460351 -0.000000 0.887737
vn 0.407038 -0.000000 0.913411
vn 0.887737 0.000001 -0.460350
vn 0.913411 0.000001 -0.407038
vn 0.981085 0.000000 -0.193579
vn 0.967918 0.000000 -0.251268
vn -0.407038 0.000000 -0.913411
vn -0.460351 0.000000 -0.887737
vn -0.646349 0.000000 -0.763042
vn -0.600086 0.000000 -0.799936
vn -0.913411 0.000001 0.407038
vn -0.887737 0.000001 0.460350
vn -0.763042 0.000000 0.646349
vn -0.799936 0.000000 0.600086
vn 0.407038 -0.000000 0.913411
vn 0.460351 -0.000000 0.887737
vn 0.646349 -0.000000 0.763042
vn 0.600086 -0.000000 0.799935
vn 0.763042 0.000000 -0.646349
vn 0.799936 0.000000 -0.600086
vn 0.913411 0.000001 -0.407038
vn 0.887737 0.000001 -0.460350
vn -0.600086 0.000000 -0.799936
vn -0.646349 0.000000 -0.763042
vn -0.799936 0.000001 -0.600085
vn -0.763043 0.000000 -0.646348
vn -0.799936 0.000000 0.600086
vn -0.763042 0.000000 0.646349
vn -0.600085 0.000000 0.799936
vn -0.646348 -0.000001 0.763043
vn 0.600086 -0.000000 0.799935
vn 0.646349 -0.000000 0.763042
vn 0.799936 0.000001 0.600085
vn 0.763043 0.000001 0.646348
vn 0.600085 -0.000001 -0.799936
vn 0.646348 -0.000001 -0.763043
vn 0.799936 0.000000 -0.600086
vn 0.763042 0.000000 -0.646349
vn -0.763043 0.000000 -0.646348
vn -0.799936 0.000001 -0.600085
vn -0.913412 0.000000 -0.407037
vn -0.887737 0.000000 -0.460350
vn -0.646348 -0.000001 0.763043
vn -0.600085 0.000000 0.799936
vn -0.407037 0.000000 0.913412
vn -0.460350 0.000000 0.887738
vn 0.763043 0.000001 0.646348
vn 0.799936 0.000001 0.600085
vn 0.913411 -0.000000 0.407038
vn 0.887738 0.000000 0.460350
vn 0.407037 0.000000 -0.913412
vn 0.460350 0.000000 -0.887738
vn 0.646348 -0.000001 -0.763043
vn 0.600085 -0.000001 -0.799936
vn -0.887737 0.000000 -0.460350
vn -0.913412 0.000000 -0.407037
vn -0.981085 0.000000 -0.193579
vn -0.967918 -0.000001 -0.251268
vn -0.460350 0.000000 0.887738
vn -0.407037 0.000000 0.913412
vn -0.193579 0.000000 0.981085
vn -0.251268 0.000000 0.967918
vn 0.887738 0.000000 0.460350
vn 0.913411 -0.000000 0.407038
vn 0.981085 -0.000000 0.193579
vn 0.967918 -0.000001 0.251268
vn 0.193579 0.000000 -0.981085
vn 0.251268 0.000000 -0.967918
vn 0.460350 0.000000 -0.887738
vn 0.407037 0.000000 -0.913412
s off
g MMA_TwistedPillar_02
usemtl TempA_TwistedPillar_02:lambert37SG
f 86/1/1 87/2/2 4/3/3 3/4/4
f 3/4/5 4/3/6 6/5/7 5/6/8
f 5/7/9 6/8/10 88/9/11 85/10/12
f 7/11/13 8/12/14 2/13/15 1/14/16
f 87/15/17 88/9/18 6/8/19 4/16/20
f 85/10/21 86/1/22 3/4/23 5/7/24
f 7/11/25 1/14/26 10/17/27 9/18/28
f 1/14/29 2/19/30 11/20/31 10/17/32
f 2/21/33 8/22/34 12/23/35 11/24/36
f 9/18/37 12/23/38 8/22/39 7/11/40
f 9/18/41 10/17/42 14/25/43 13/26/44
f 10/17/45 11/20/46 15/27/47 14/25/48
f 11/24/49 12/23/50 16/28/51 15/29/52
f 13/26/53 16/28/54 12/23/55 9/18/56
f 13/26/57 14/25/58 18/30/59 17/31/60
f 14/25/61 15/27/62 19/32/63 18/30/64
f 15/29/65 16/28/66 20/33/67 19/34/68
f 17/31/69 20/33/70 16/28/71 13/26/72
f 17/31/73 18/30/74 22/35/75 21/36/76
f 18/30/77 19/32/78 23/37/79 22/35/80
f 19/34/81 20/33/82 24/38/83 23/39/84
f 21/36/85 24/38/86 20/33/87 17/31/88
f 21/36/89 22/35/90 26/40/91 25/41/92
f 22/35/93 23/37/94 27/42/95 26/40/96
f 23/39/97 24/38/98 28/43/99 27/44/100
f 25/41/101 28/43/102 24/38/103 21/36/104
f 25/41/105 26/40/106 30/45/107 29/46/108
f 26/40/109 27/42/110 31/47/111 30/45/112
f 27/44/113 28/43/114 32/48/115 31/49/116
f 29/46/117 32/48/118 28/43/119 25/41/120
f 29/46/121 30/45/122 34/50/123 33/51/124
f 30/45/125 31/47/126 35/52/127 34/50/128
f 31/49/129 32/48/130 36/53/131 35/54/132
f 33/51/133 36/53/134 32/48/135 29/46/136
f 33/51/137 34/50/138 38/55/139 37/56/140
f 34/50/141 35/52/142 39/57/143 38/55/144
f 35/54/145 36/53/146 40/58/147 39/59/148
f 37/56/149 40/58/150 36/53/151 33/51/152
f 37/56/153 38/55/154 42/60/155 41/61/156
f 38/55/157 39/57/158 43/62/159 42/60/160
f 39/59/161 40/58/162 44/63/163 43/64/164
f 41/61/165 44/63/166 40/58/167 37/56/168
f 41/61/169 42/60/170 46/65/171 45/66/172
f 42/60/173 43/62/174 47/67/175 46/65/176
f 43/64/177 44/63/178 48/68/179 47/69/180
f 45/66/181 48/68/182 44/63/183 41/61/184
f 45/66/185 46/65/186 50/70/187 49/71/188
f 46/65/189 47/67/190 51/72/191 50/70/192
f 47/69/193 48/68/194 52/73/195 51/74/196
f 49/71/197 52/73/198 48/68/199 45/66/200
f 49/71/201 50/70/202 54/75/203 53/76/204
f 50/70/205 51/72/206 55/77/207 54/75/208
f 51/74/209 52/73/210 56/78/211 55/79/212
f 53/76/213 56/78/214 52/73/215 49/71/216
f 53/76/217 54/75/218 58/80/219 57/81/220
f 54/75/221 55/77/222 59/82/223 58/80/224
f 55/79/225 56/78/226 60/83/227 59/84/228
f 57/81/229 60/83/230 56/78/231 53/76/232
f 57/81/233 58/80/234 62/85/235 61/86/236
f 58/80/237 59/82/238 63/87/239 62/85/240
f 59/84/241 60/83/242 64/88/243 63/89/244
f 61/86/245 64/88/246 60/83/247 57/81/248
f 61/86/249 62/85/250 66/90/251 65/91/252
f 62/85/253 63/87/254 67/92/255 66/90/256
f 63/89/257 64/88/258 68/93/259 67/94/260
f 65/91/261 68/93/262 64/88/263 61/86/264
f 65/91/265 66/90/266 70/95/267 69/96/268
f 66/90/269 67/92/270 71/97/271 70/95/272
f 67/94/273 68/93/274 72/98/275 71/99/276
f 69/96/277 72/98/278 68/93/279 65/91/280
f 69/96/281 70/95/282 74/100/283 73/101/284
f 70/95/285 71/97/286 75/102/287 74/100/288
f 71/99/289 72/98/290 76/103/291 75/104/292
f 73/101/293 76/103/294 72/98/295 69/96/296
f 73/101/297 74/100/298 78/105/299 77/106/300
f 74/100/301 75/102/302 79/107/303 78/105/304
f 75/104/305 76/103/306 80/108/307 79/109/308
f 77/106/309 80/108/310 76/103/311 73/101/312
f 77/106/313 78/105/314 82/110/315 81/111/316
f 78/105/317 79/107/318 83/112/319 82/110/320
f 79/109/321 80/108/322 84/113/323 83/114/324
f 81/111/325 84/113/326 80/108/327 77/106/328
f 81/111/329 82/110/330 86/1/331 85/10/332
f 82/110/333 83/112/334 87/2/335 86/1/336
f 83/114/337 84/113/338 88/9/339 87/15/340
f 85/10/341 88/9/342 84/113/343 81/111/344
