# This file uses centimeters as units for non-parametric coordinates.

mtllib MMA_TwistedPillar_01.mtl
g default
v -1.000000 0.000000 -1.000000
v -1.000000 0.000000 0.000000
v -1.000000 5.000000 0.000000
v 0.000000 5.000000 0.000000
v -1.000000 5.000000 -1.000000
v 0.000000 5.000000 -1.000000
v 0.000000 0.000000 -1.000000
v 0.000000 0.000000 0.000000
v -0.038763 0.238095 -1.035967
v -1.035967 0.238095 -0.961237
v -0.961237 0.238095 0.035967
v 0.035967 0.238095 -0.038763
v -0.080106 0.476191 -1.068937
v -1.068936 0.476191 -0.919894
v -0.919894 0.476191 0.068937
v 0.068936 0.476191 -0.080106
v -0.123796 0.714286 -1.098724
v -1.098724 0.714286 -0.876204
v -0.876204 0.714286 0.098724
v 0.098724 0.714286 -0.123796
v -0.169591 0.952381 -1.125164
v -1.125164 0.952381 -0.830409
v -0.830409 0.952381 0.125164
v 0.125164 0.952381 -0.169591
v -0.217234 1.190476 -1.148107
v -1.148108 1.190476 -0.782766
v -0.782766 1.190476 0.148107
v 0.148108 1.190476 -0.217234
v -0.266458 1.428571 -1.167426
v -1.167426 1.428571 -0.733543
v -0.733542 1.428571 0.167426
v 0.167426 1.428571 -0.266457
v -0.316988 1.666667 -1.183013
v -1.183013 1.666667 -0.683013
v -0.683012 1.666667 0.183013
v 0.183013 1.666667 -0.316987
v -0.368541 1.904762 -1.194779
v -1.194779 1.904762 -0.631459
v -0.631459 1.904762 0.194779
v 0.194779 1.904762 -0.368541
v -0.420829 2.142857 -1.202661
v -1.202661 2.142857 -0.579171
v -0.579171 2.142857 0.202661
v 0.202661 2.142857 -0.420829
v -0.473560 2.380952 -1.206612
v -1.206613 2.380952 -0.526440
v -0.526440 2.380952 0.206612
v 0.206612 2.380952 -0.473560
v -0.526440 2.619048 -1.206612
v -1.206613 2.619048 -0.473560
v -0.473560 2.619048 0.206612
v 0.206612 2.619048 -0.526440
v -0.579171 2.857143 -1.202661
v -1.202661 2.857143 -0.420829
v -0.420829 2.857143 0.202661
v 0.202661 2.857143 -0.579171
v -0.631459 3.095238 -1.194779
v -1.194779 3.095238 -0.368541
v -0.368541 3.095238 0.194779
v 0.194779 3.095238 -0.631459
v -0.683013 3.333333 -1.183013
v -1.183013 3.333333 -0.316987
v -0.316987 3.333333 0.183013
v 0.183012 3.333333 -0.683013
v -0.733542 3.571429 -1.167426
v -1.167426 3.571429 -0.266457
v -0.266458 3.571429 0.167426
v 0.167426 3.571429 -0.733543
v -0.782766 3.809524 -1.148107
v -1.148108 3.809524 -0.217234
v -0.217234 3.809524 0.148107
v 0.148108 3.809524 -0.782766
v -0.830409 4.047619 -1.125164
v -1.125164 4.047619 -0.169591
v -0.169591 4.047619 0.125164
v 0.125164 4.047619 -0.830409
v -0.876204 4.285715 -1.098724
v -1.098724 4.285715 -0.123796
v -0.123796 4.285715 0.098724
v 0.098724 4.285715 -0.876204
v -0.919894 4.523810 -1.068936
v -1.068936 4.523810 -0.080106
v -0.080106 4.523810 0.068936
v 0.068936 4.523810 -0.919894
v -0.961237 4.761905 -1.035967
v -1.035967 4.761905 -0.038763
v -0.038763 4.761905 0.035967
v 0.035967 4.761905 -0.961237
vt 0.905235 0.720491
vt 0.967721 0.720625
vt 0.970111 0.735677
vt 0.907625 0.735543
vt 0.969977 0.798163
vt 0.907491 0.798029
vt 0.845139 0.735408
vt 0.782653 0.735274
vt 0.780263 0.720222
vt 0.842749 0.720356
vt 0.732601 0.356703
vt 0.732467 0.419189
vt 0.669981 0.419055
vt 0.670115 0.356569
vt 0.717777 0.720088
vt 0.720167 0.735139
vt 0.794953 0.419324
vt 0.857439 0.419458
vt 0.859829 0.434510
vt 0.797343 0.434375
vt 0.919925 0.419592
vt 0.922315 0.434644
vt 0.734857 0.434241
vt 0.672371 0.434106
vt 0.862219 0.449561
vt 0.799733 0.449427
vt 0.924705 0.449696
vt 0.737247 0.449293
vt 0.674761 0.449158
vt 0.864609 0.464613
vt 0.802123 0.464479
vt 0.927095 0.464747
vt 0.739637 0.464344
vt 0.677150 0.464210
vt 0.866998 0.479665
vt 0.804512 0.479530
vt 0.929485 0.479799
vt 0.742026 0.479396
vt 0.679540 0.479261
vt 0.869388 0.494716
vt 0.806902 0.494582
vt 0.931874 0.494851
vt 0.744416 0.494447
vt 0.681930 0.494313
vt 0.871778 0.509768
vt 0.809292 0.509634
vt 0.934264 0.509902
vt 0.746806 0.509499
vt 0.684320 0.509365
vt 0.874168 0.524820
vt 0.811682 0.524685
vt 0.936654 0.524954
vt 0.749196 0.524551
vt 0.686710 0.524416
vt 0.876558 0.539871
vt 0.814072 0.539737
vt 0.939044 0.540006
vt 0.751585 0.539602
vt 0.689099 0.539468
vt 0.878947 0.554923
vt 0.816461 0.554788
vt 0.941433 0.555057
vt 0.753975 0.554654
vt 0.691489 0.554520
vt 0.881337 0.569975
vt 0.818851 0.569840
vt 0.943823 0.570109
vt 0.756365 0.569706
vt 0.693879 0.569571
vt 0.883727 0.585026
vt 0.821241 0.584892
vt 0.946213 0.585161
vt 0.758755 0.584757
vt 0.696269 0.584623
vt 0.886117 0.600078
vt 0.823631 0.599943
vt 0.948603 0.600212
vt 0.761145 0.599809
vt 0.698659 0.599675
vt 0.888507 0.615129
vt 0.826020 0.614995
vt 0.950993 0.615264
vt 0.763534 0.614861
vt 0.701048 0.614726
vt 0.890896 0.630181
vt 0.828410 0.630047
vt 0.953382 0.630316
vt 0.765924 0.629912
vt 0.703438 0.629778
vt 0.893286 0.645233
vt 0.830800 0.645098
vt 0.955772 0.645367
vt 0.768314 0.644964
vt 0.705828 0.644830
vt 0.895676 0.660284
vt 0.833190 0.660150
vt 0.958162 0.660419
vt 0.770704 0.660016
vt 0.708218 0.659881
vt 0.898066 0.675336
vt 0.835580 0.675201
vt 0.960552 0.675470
vt 0.773094 0.675067
vt 0.710608 0.674933
vt 0.900456 0.690387
vt 0.837970 0.690253
vt 0.962942 0.690522
vt 0.775483 0.690119
vt 0.712997 0.689984
vt 0.902845 0.705439
vt 0.840359 0.705305
vt 0.965331 0.705574
vt 0.777873 0.705170
vt 0.715387 0.705036
vn -0.078397 0.000000 0.996922
vn -0.071062 0.000000 0.997472
vn -0.037391 0.000000 0.999301
vn -0.037391 0.000000 0.999301
vn 0.000000 1.000000 0.000000
vn 0.000000 1.000000 0.000000
vn 0.000000 1.000000 0.000000
vn 0.000000 1.000000 0.000000
vn 0.037391 0.000000 -0.999301
vn 0.037391 0.000000 -0.999301
vn 0.078397 0.000000 -0.996922
vn 0.071062 0.000000 -0.997472
vn 0.000000 -1.000000 0.000000
vn 0.000000 -1.000000 0.000000
vn 0.000000 -1.000000 0.000000
vn 0.000000 -1.000000 0.000000
vn 0.996922 -0.000000 0.078397
vn 0.997472 -0.000000 0.071062
vn 0.999301 0.000000 0.037391
vn 0.999301 0.000000 0.037391
vn -0.996922 0.000000 -0.078397
vn -0.997472 0.000000 -0.071062
vn -0.999301 0.000000 -0.037391
vn -0.999301 0.000000 -0.037391
vn -0.037391 0.000000 -0.999301
vn -0.037391 0.000000 -0.999301
vn -0.078397 0.000000 -0.996922
vn -0.071062 0.000000 -0.997472
vn -0.999301 0.000000 0.037391
vn -0.999301 0.000000 0.037391
vn -0.996922 0.000000 0.078397
vn -0.997472 0.000000 0.071062
vn 0.037391 0.000000 0.999301
vn 0.037391 0.000000 0.999301
vn 0.078397 0.000000 0.996922
vn 0.071062 0.000000 0.997472
vn 0.996922 0.000000 -0.078397
vn 0.997472 0.000000 -0.071062
vn 0.999301 0.000000 -0.037391
vn 0.999301 0.000000 -0.037391
vn -0.071062 0.000000 -0.997472
vn -0.078397 0.000000 -0.996922
vn -0.152678 0.000000 -0.988276
vn -0.145405 0.000000 -0.989372
vn -0.997472 0.000000 0.071062
vn -0.996922 0.000000 0.078397
vn -0.988276 0.000000 0.152677
vn -0.989372 0.000000 0.145405
vn 0.071062 0.000000 0.997472
vn 0.078397 0.000000 0.996922
vn 0.152678 -0.000000 0.988276
vn 0.145405 -0.000000 0.989372
vn 0.988276 0.000000 -0.152677
vn 0.989372 0.000000 -0.145405
vn 0.997472 0.000000 -0.071062
vn 0.996922 0.000000 -0.078397
vn -0.145405 0.000000 -0.989372
vn -0.152678 0.000000 -0.988276
vn -0.226105 0.000000 -0.974103
vn -0.218934 0.000000 -0.975740
vn -0.989372 0.000000 0.145405
vn -0.988276 0.000000 0.152677
vn -0.974103 -0.000001 0.226104
vn -0.975740 0.000000 0.218934
vn 0.145405 -0.000000 0.989372
vn 0.152678 -0.000000 0.988276
vn 0.226105 0.000000 0.974103
vn 0.218934 0.000000 0.975740
vn 0.974103 -0.000001 -0.226104
vn 0.975740 -0.000001 -0.218934
vn 0.989372 0.000000 -0.145405
vn 0.988276 0.000000 -0.152677
vn -0.218934 0.000000 -0.975740
vn -0.226105 0.000000 -0.974103
vn -0.298267 0.000000 -0.954482
vn -0.291239 0.000000 -0.956650
vn -0.975740 0.000000 0.218934
vn -0.974103 -0.000001 0.226104
vn -0.954482 0.000000 0.298267
vn -0.956650 0.000000 0.291239
vn 0.218934 0.000000 0.975740
vn 0.226105 0.000000 0.974103
vn 0.298267 -0.000000 0.954482
vn 0.291239 -0.000000 0.956650
vn 0.954482 0.000000 -0.298267
vn 0.956650 0.000000 -0.291239
vn 0.975740 -0.000001 -0.218934
vn 0.974103 -0.000001 -0.226104
vn -0.291239 0.000000 -0.956650
vn -0.298267 0.000000 -0.954482
vn -0.368762 0.000000 -0.929524
vn -0.361915 0.000000 -0.932211
vn -0.956650 0.000000 0.291239
vn -0.954482 0.000000 0.298267
vn -0.929524 0.000001 0.368762
vn -0.932211 0.000000 0.361915
vn 0.291239 -0.000000 0.956650
vn 0.298267 -0.000000 0.954482
vn 0.368762 0.000000 0.929524
vn 0.361915 -0.000000 0.932211
vn 0.929524 0.000001 -0.368762
vn 0.932211 0.000001 -0.361915
vn 0.956650 0.000000 -0.291239
vn 0.954482 0.000000 -0.298267
vn -0.361915 0.000000 -0.932211
vn -0.368762 0.000000 -0.929524
vn -0.437194 0.000000 -0.899367
vn -0.430568 0.000000 -0.902558
vn -0.932211 0.000000 0.361915
vn -0.929524 0.000001 0.368762
vn -0.899367 0.000000 0.437194
vn -0.902558 0.000000 0.430568
vn 0.361915 -0.000000 0.932211
vn 0.368762 0.000000 0.929524
vn 0.437194 -0.000000 0.899367
vn 0.430568 -0.000000 0.902558
vn 0.899367 0.000000 -0.437194
vn 0.902558 0.000000 -0.430568
vn 0.932211 0.000001 -0.361915
vn 0.929524 0.000001 -0.368762
vn -0.430568 0.000000 -0.902558
vn -0.437194 0.000000 -0.899367
vn -0.503181 0.000000 -0.864181
vn -0.496812 0.000000 -0.867858
vn -0.902558 0.000000 0.430568
vn -0.899367 0.000000 0.437194
vn -0.864181 0.000000 0.503182
vn -0.867858 0.000000 0.496812
vn 0.430568 -0.000000 0.902558
vn 0.437194 -0.000000 0.899367
vn 0.503181 -0.000000 0.864181
vn 0.496812 -0.000000 0.867858
vn 0.864181 0.000000 -0.503182
vn 0.867858 0.000000 -0.496812
vn 0.902558 0.000000 -0.430568
vn 0.899367 0.000000 -0.437194
vn -0.496812 0.000000 -0.867858
vn -0.503181 0.000000 -0.864181
vn -0.566355 0.000000 -0.824162
vn -0.560278 0.000000 -0.828305
vn -0.867858 0.000000 0.496812
vn -0.864181 0.000000 0.503182
vn -0.824162 0.000000 0.566355
vn -0.828305 0.000000 0.560278
vn 0.496812 -0.000000 0.867858
vn 0.503181 -0.000000 0.864181
vn 0.566355 0.000000 0.824162
vn 0.560278 0.000000 0.828305
vn 0.824162 0.000000 -0.566355
vn 0.828305 0.000000 -0.560278
vn 0.867858 0.000000 -0.496812
vn 0.864181 0.000000 -0.503182
vn -0.560278 0.000000 -0.828305
vn -0.566355 0.000000 -0.824162
vn -0.626361 0.000000 -0.779533
vn -0.620611 0.000000 -0.784119
vn -0.828305 0.000000 0.560278
vn -0.824162 0.000000 0.566355
vn -0.779533 0.000000 0.626361
vn -0.784119 0.000000 0.620611
vn 0.560278 0.000000 0.828305
vn 0.566355 0.000000 0.824162
vn 0.626361 0.000000 0.779533
vn 0.620611 0.000000 0.784119
vn 0.779533 0.000000 -0.626361
vn 0.784119 0.000000 -0.620611
vn 0.828305 0.000000 -0.560278
vn 0.824162 0.000000 -0.566355
vn -0.620611 0.000000 -0.784119
vn -0.626361 0.000000 -0.779533
vn -0.682864 0.000000 -0.730546
vn -0.677472 0.000000 -0.735548
vn -0.784119 0.000000 0.620611
vn -0.779533 0.000000 0.626361
vn -0.730546 0.000000 0.682864
vn -0.735548 0.000000 0.677473
vn 0.620611 0.000000 0.784119
vn 0.626361 0.000000 0.779533
vn 0.682864 0.000000 0.730546
vn 0.677473 0.000000 0.735548
vn 0.730546 0.000000 -0.682864
vn 0.735548 0.000000 -0.677472
vn 0.784119 0.000000 -0.620611
vn 0.779533 0.000000 -0.626361
vn -0.677472 0.000000 -0.735548
vn -0.682864 0.000000 -0.730546
vn -0.735548 0.000001 -0.677472
vn -0.730546 0.000001 -0.682864
vn -0.735548 0.000000 0.677473
vn -0.730546 0.000000 0.682864
vn -0.677472 0.000000 0.735548
vn -0.682864 0.000000 0.730546
vn 0.677473 0.000000 0.735548
vn 0.682864 0.000000 0.730546
vn 0.735548 -0.000000 0.677472
vn 0.730546 -0.000000 0.682864
vn 0.677473 0.000000 -0.735548
vn 0.682864 0.000000 -0.730546
vn 0.735548 0.000000 -0.677472
vn 0.730546 0.000000 -0.682864
vn -0.730546 0.000001 -0.682864
vn -0.735548 0.000001 -0.677472
vn -0.784119 0.000000 -0.620610
vn -0.779533 0.000001 -0.626361
vn -0.682864 0.000000 0.730546
vn -0.677472 0.000000 0.735548
vn -0.620610 0.000000 0.784119
vn -0.626361 0.000000 0.779533
vn 0.730546 -0.000000 0.682864
vn 0.735548 -0.000000 0.677472
vn 0.784119 0.000000 0.620610
vn 0.779533 0.000000 0.626361
vn 0.620611 0.000000 -0.784119
vn 0.626361 0.000000 -0.779533
vn 0.682864 0.000000 -0.730546
vn 0.677473 0.000000 -0.735548
vn -0.779533 0.000001 -0.626361
vn -0.784119 0.000000 -0.620610
vn -0.828305 -0.000001 -0.560278
vn -0.824162 -0.000001 -0.566355
vn -0.626361 0.000000 0.779533
vn -0.620610 0.000000 0.784119
vn -0.560278 0.000000 0.828305
vn -0.566354 0.000000 0.824162
vn 0.779533 0.000000 0.626361
vn 0.784119 0.000000 0.620610
vn 0.828305 -0.000000 0.560278
vn 0.824162 -0.000000 0.566355
vn 0.560278 0.000000 -0.828305
vn 0.566355 0.000000 -0.824162
vn 0.626361 0.000000 -0.779533
vn 0.620611 0.000000 -0.784119
vn -0.824162 -0.000001 -0.566355
vn -0.828305 -0.000001 -0.560278
vn -0.867858 0.000000 -0.496812
vn -0.864181 0.000000 -0.503182
vn -0.566354 0.000000 0.824162
vn -0.560278 0.000000 0.828305
vn -0.496812 0.000000 0.867858
vn -0.503181 0.000000 0.864181
vn 0.824162 -0.000000 0.566355
vn 0.828305 -0.000000 0.560278
vn 0.867858 0.000000 0.496812
vn 0.864181 0.000000 0.503181
vn 0.496812 0.000000 -0.867858
vn 0.503181 0.000000 -0.864181
vn 0.566355 0.000000 -0.824162
vn 0.560278 0.000000 -0.828305
vn -0.864181 0.000000 -0.503182
vn -0.867858 0.000000 -0.496812
vn -0.902558 0.000000 -0.430568
vn -0.899367 0.000001 -0.437194
vn -0.503181 0.000000 0.864181
vn -0.496812 0.000000 0.867858
vn -0.430568 0.000000 0.902558
vn -0.437194 0.000000 0.899367
vn 0.864181 0.000000 0.503181
vn 0.867858 0.000000 0.496812
vn 0.902558 -0.000000 0.430568
vn 0.899367 -0.000000 0.437194
vn 0.430568 0.000000 -0.902558
vn 0.437194 0.000000 -0.899367
vn 0.503181 0.000000 -0.864181
vn 0.496812 0.000000 -0.867858
vn -0.899367 0.000001 -0.437194
vn -0.902558 0.000000 -0.430568
vn -0.932211 0.000000 -0.361915
vn -0.929524 0.000000 -0.368762
vn -0.437194 0.000000 0.899367
vn -0.430568 0.000000 0.902558
vn -0.361915 0.000000 0.932211
vn -0.368762 0.000000 0.929524
vn 0.899367 -0.000000 0.437194
vn 0.902558 -0.000000 0.430568
vn 0.932211 -0.000001 0.361915
vn 0.929524 -0.000001 0.368762
vn 0.361915 0.000000 -0.932211
vn 0.368762 0.000000 -0.929524
vn 0.437194 0.000000 -0.899367
vn 0.430568 0.000000 -0.902558
vn -0.929524 0.000000 -0.368762
vn -0.932211 0.000000 -0.361915
vn -0.956650 0.000000 -0.291239
vn -0.954482 0.000000 -0.298267
vn -0.368762 0.000000 0.929524
vn -0.361915 0.000000 0.932211
vn -0.291239 0.000000 0.956650
vn -0.298267 0.000000 0.954482
vn 0.929524 -0.000001 0.368762
vn 0.932211 -0.000001 0.361915
vn 0.956650 0.000000 0.291239
vn 0.954482 0.000000 0.298267
vn 0.291239 0.000000 -0.956650
vn 0.298267 0.000000 -0.954482
vn 0.368762 0.000000 -0.929524
vn 0.361915 0.000000 -0.932211
vn -0.954482 0.000000 -0.298267
vn -0.956650 0.000000 -0.291239
vn -0.975740 0.000000 -0.218934
vn -0.974103 0.000000 -0.226104
vn -0.298267 0.000000 0.954482
vn -0.291239 0.000000 0.956650
vn -0.218934 0.000000 0.975740
vn -0.226105 0.000000 0.974103
vn 0.954482 0.000000 0.298267
vn 0.956650 0.000000 0.291239
vn 0.975740 0.000001 0.218934
vn 0.974103 0.000001 0.226104
vn 0.218934 0.000000 -0.975740
vn 0.226105 0.000000 -0.974103
vn 0.298267 0.000000 -0.954482
vn 0.291239 0.000000 -0.956650
vn -0.974103 0.000000 -0.226104
vn -0.975740 0.000000 -0.218934
vn -0.989372 0.000000 -0.145405
vn -0.988276 0.000000 -0.152677
vn -0.226105 0.000000 0.974103
vn -0.218934 0.000000 0.975740
vn -0.145405 0.000000 0.989372
vn -0.152678 0.000000 0.988276
vn 0.974103 0.000001 0.226104
vn 0.975740 0.000001 0.218934
vn 0.989372 -0.000000 0.145405
vn 0.988276 -0.000000 0.152677
vn 0.145405 0.000000 -0.989372
vn 0.152678 0.000000 -0.988276
vn 0.226105 0.000000 -0.974103
vn 0.218934 0.000000 -0.975740
vn -0.988276 0.000000 -0.152677
vn -0.989372 0.000000 -0.145405
vn -0.997472 0.000000 -0.071062
vn -0.996922 0.000000 -0.078397
vn -0.152678 0.000000 0.988276
vn -0.145405 0.000000 0.989372
vn -0.071062 0.000000 0.997472
vn -0.078397 0.000000 0.996922
vn 0.988276 -0.000000 0.152677
vn 0.989372 -0.000000 0.145405
vn 0.997472 -0.000000 0.071062
vn 0.996922 -0.000000 0.078397
vn 0.071062 0.000000 -0.997472
vn 0.078397 0.000000 -0.996922
vn 0.152678 0.000000 -0.988276
vn 0.145405 0.000000 -0.989372
s off
g MMA_TwistedPillar_01
usemtl TempA_TwistedPillar_01:lambert37SG
f 86/1/1 87/2/2 4/3/3 3/4/4
f 3/4/5 4/3/6 6/5/7 5/6/8
f 5/7/9 6/8/10 88/9/11 85/10/12
f 7/11/13 8/12/14 2/13/15 1/14/16
f 87/15/17 88/9/18 6/8/19 4/16/20
f 85/10/21 86/1/22 3/4/23 5/7/24
f 7/17/25 1/18/26 10/19/27 9/20/28
f 1/18/29 2/21/30 11/22/31 10/19/32
f 2/13/33 8/12/34 12/23/35 11/24/36
f 9/20/37 12/23/38 8/12/39 7/17/40
f 9/20/41 10/19/42 14/25/43 13/26/44
f 10/19/45 11/22/46 15/27/47 14/25/48
f 11/24/49 12/23/50 16/28/51 15/29/52
f 13/26/53 16/28/54 12/23/55 9/20/56
f 13/26/57 14/25/58 18/30/59 17/31/60
f 14/25/61 15/27/62 19/32/63 18/30/64
f 15/29/65 16/28/66 20/33/67 19/34/68
f 17/31/69 20/33/70 16/28/71 13/26/72
f 17/31/73 18/30/74 22/35/75 21/36/76
f 18/30/77 19/32/78 23/37/79 22/35/80
f 19/34/81 20/33/82 24/38/83 23/39/84
f 21/36/85 24/38/86 20/33/87 17/31/88
f 21/36/89 22/35/90 26/40/91 25/41/92
f 22/35/93 23/37/94 27/42/95 26/40/96
f 23/39/97 24/38/98 28/43/99 27/44/100
f 25/41/101 28/43/102 24/38/103 21/36/104
f 25/41/105 26/40/106 30/45/107 29/46/108
f 26/40/109 27/42/110 31/47/111 30/45/112
f 27/44/113 28/43/114 32/48/115 31/49/116
f 29/46/117 32/48/118 28/43/119 25/41/120
f 29/46/121 30/45/122 34/50/123 33/51/124
f 30/45/125 31/47/126 35/52/127 34/50/128
f 31/49/129 32/48/130 36/53/131 35/54/132
f 33/51/133 36/53/134 32/48/135 29/46/136
f 33/51/137 34/50/138 38/55/139 37/56/140
f 34/50/141 35/52/142 39/57/143 38/55/144
f 35/54/145 36/53/146 40/58/147 39/59/148
f 37/56/149 40/58/150 36/53/151 33/51/152
f 37/56/153 38/55/154 42/60/155 41/61/156
f 38/55/157 39/57/158 43/62/159 42/60/160
f 39/59/161 40/58/162 44/63/163 43/64/164
f 41/61/165 44/63/166 40/58/167 37/56/168
f 41/61/169 42/60/170 46/65/171 45/66/172
f 42/60/173 43/62/174 47/67/175 46/65/176
f 43/64/177 44/63/178 48/68/179 47/69/180
f 45/66/181 48/68/182 44/63/183 41/61/184
f 45/66/185 46/65/186 50/70/187 49/71/188
f 46/65/189 47/67/190 51/72/191 50/70/192
f 47/69/193 48/68/194 52/73/195 51/74/196
f 49/71/197 52/73/198 48/68/199 45/66/200
f 49/71/201 50/70/202 54/75/203 53/76/204
f 50/70/205 51/72/206 55/77/207 54/75/208
f 51/74/209 52/73/210 56/78/211 55/79/212
f 53/76/213 56/78/214 52/73/215 49/71/216
f 53/76/217 54/75/218 58/80/219 57/81/220
f 54/75/221 55/77/222 59/82/223 58/80/224
f 55/79/225 56/78/226 60/83/227 59/84/228
f 57/81/229 60/83/230 56/78/231 53/76/232
f 57/81/233 58/80/234 62/85/235 61/86/236
f 58/80/237 59/82/238 63/87/239 62/85/240
f 59/84/241 60/83/242 64/88/243 63/89/244
f 61/86/245 64/88/246 60/83/247 57/81/248
f 61/86/249 62/85/250 66/90/251 65/91/252
f 62/85/253 63/87/254 67/92/255 66/90/256
f 63/89/257 64/88/258 68/93/259 67/94/260
f 65/91/261 68/93/262 64/88/263 61/86/264
f 65/91/265 66/90/266 70/95/267 69/96/268
f 66/90/269 67/92/270 71/97/271 70/95/272
f 67/94/273 68/93/274 72/98/275 71/99/276
f 69/96/277 72/98/278 68/93/279 65/91/280
f 69/96/281 70/95/282 74/100/283 73/101/284
f 70/95/285 71/97/286 75/102/287 74/100/288
f 71/99/289 72/98/290 76/103/291 75/104/292
f 73/101/293 76/103/294 72/98/295 69/96/296
f 73/101/297 74/100/298 78/105/299 77/106/300
f 74/100/301 75/102/302 79/107/303 78/105/304
f 75/104/305 76/103/306 80/108/307 79/109/308
f 77/106/309 80/108/310 76/103/311 73/101/312
f 77/106/313 78/105/314 82/110/315 81/111/316
f 78/105/317 79/107/318 83/112/319 82/110/320
f 79/109/321 80/108/322 84/113/323 83/114/324
f 81/111/325 84/113/326 80/108/327 77/106/328
f 81/111/329 82/110/330 86/1/331 85/10/332
f 82/110/333 83/112/334 87/2/335 86/1/336
f 83/114/337 84/113/338 88/9/339 87/15/340
f 85/10/341 88/9/342 84/113/343 81/111/344
