# This file uses centimeters as units for non-parametric coordinates.

mtllib MMA_Entrance_01.mtl
g default
v -1.000000 2.000000 -4.000000
v -1.000000 0.000000 -4.000000
v 0.000000 0.000000 -4.000000
v 0.000000 2.000000 -4.000000
v 0.000000 2.292633 -3.970692
v -1.000000 2.292633 -3.970692
v 0.000000 2.574020 -3.884854
v -1.000000 2.574020 -3.884854
v 0.000000 2.833344 -3.746515
v -1.000000 2.833344 -3.746515
v 0.000000 3.060669 -3.559446
v -1.000000 3.060669 -3.559446
v 0.000000 3.247192 -3.331651
v -1.000000 3.247192 -3.331651
v 0.000000 2.000000 -1.000000
v 0.000000 -0.000000 -1.000000
v -1.000000 -0.000000 -1.000000
v -1.000000 2.000000 -1.000000
v 0.000000 3.385818 -3.070468
v -1.000000 3.385818 -3.070468
v 0.000000 3.471191 -2.788999
v -1.000000 3.471191 -2.788999
v 0.000000 3.500000 -2.496471
v -1.000000 3.500000 -2.496471
v 0.000000 2.292633 -1.029309
v -1.000000 2.292633 -1.029309
v 0.000000 3.471191 -2.211001
v -1.000000 3.471191 -2.211001
v 0.000000 3.385834 -1.929532
v -1.000000 3.385834 -1.929532
v 0.000000 2.574020 -1.115147
v -1.000000 2.574020 -1.115147
v 0.000000 3.247192 -1.668350
v -1.000000 3.247192 -1.668350
v 0.000000 2.833344 -1.253486
v -1.000000 2.833344 -1.253486
v 0.000000 3.060669 -1.440555
v -1.000000 3.060669 -1.440555
v 0.000000 2.000000 0.000000
v 0.000000 -0.000000 0.000000
v -1.000000 -0.000000 0.000000
v -1.000000 2.000000 0.000000
v -1.000000 2.000000 -5.000001
v -1.000000 0.000000 -5.000000
v 0.000000 0.000000 -5.000000
v 0.000000 2.000000 -5.000001
v 0.000000 2.292633 0.000001
v -1.000000 2.292633 0.000001
v 0.000000 2.574020 0.000000
v -1.000000 2.574020 0.000000
v 0.000000 2.833344 -0.000001
v -1.000000 2.833344 -0.000001
v 0.000000 2.292633 -5.000001
v -1.000000 2.292633 -5.000001
v 0.000000 2.574020 -5.000000
v -1.000000 2.574020 -5.000000
v 0.000000 2.833344 -4.999999
v -1.000000 2.833344 -4.999999
v 0.000000 4.999997 -3.746515
v 0.000000 4.999999 -3.559446
v -1.000000 4.999999 -3.559446
v -1.000000 4.999997 -3.746515
v 0.000000 5.000001 -3.331651
v -1.000000 5.000001 -3.331651
v 0.000000 5.000002 -3.070468
v -1.000000 5.000002 -3.070468
v 0.000000 5.000003 -2.788999
v -1.000000 5.000003 -2.788999
v 0.000000 5.000003 -2.496471
v -1.000000 5.000003 -2.496471
v 0.000000 5.000003 -2.211001
v -1.000000 5.000003 -2.211001
v 0.000000 5.000002 -1.929532
v -1.000000 5.000002 -1.929532
v 0.000000 5.000001 -1.668350
v -1.000000 5.000001 -1.668350
v 0.000000 4.999999 -1.440555
v -1.000000 4.999999 -1.440555
v 0.000000 4.999997 -1.253486
v -1.000000 4.999997 -1.253486
v 0.000000 4.999997 -0.000001
v -1.000000 4.999997 -0.000001
v 0.000000 4.999997 -4.999999
v -1.000000 4.999997 -4.999999
vt 0.273570 0.706327
vt 0.273571 0.647573
vt 0.168410 0.899993
vt 0.364105 0.538807
vt 0.363240 0.547466
vt 0.274430 0.714924
vt 0.360701 0.555794
vt 0.276952 0.723190
vt 0.356609 0.563468
vt 0.281015 0.730808
vt 0.351075 0.570196
vt 0.286511 0.737487
vt 0.344335 0.575717
vt 0.293202 0.742966
vt 0.275330 0.538826
vt 0.275318 0.479642
vt 0.375086 0.923696
vt 0.361700 0.706330
vt 0.336607 0.579821
vt 0.300875 0.747039
vt 0.328279 0.582349
vt 0.309143 0.749547
vt 0.319623 0.583203
vt 0.317737 0.750394
vt 0.276199 0.547485
vt 0.360839 0.714926
vt 0.311175 0.582353
vt 0.326123 0.749548
vt 0.302845 0.579829
vt 0.334392 0.747040
vt 0.278741 0.555811
vt 0.358317 0.723193
vt 0.295116 0.575728
vt 0.342065 0.742968
vt 0.282836 0.563484
vt 0.354253 0.730811
vt 0.288374 0.570209
vt 0.348757 0.737489
vt 0.446333 0.899993
vt 0.398835 0.899993
vt 0.398835 0.923696
vt 0.446333 0.923696
vt 0.097163 0.923696
vt 0.144661 0.923696
vt 0.144661 0.899993
vt 0.097163 0.899993
vt 0.453282 0.899993
vt 0.453282 0.923696
vt 0.459965 0.899993
vt 0.459965 0.923696
vt 0.466123 0.899993
vt 0.466124 0.923696
vt 0.090214 0.899993
vt 0.090214 0.923696
vt 0.083531 0.899993
vt 0.083531 0.923696
vt 0.077372 0.899993
vt 0.077372 0.923696
vt 0.606555 0.899993
vt 0.602112 0.899993
vt 0.602112 0.923696
vt 0.606555 0.923696
vt 0.596702 0.899993
vt 0.596702 0.923696
vt 0.590499 0.899993
vt 0.590499 0.923696
vt 0.583815 0.899993
vt 0.583815 0.923696
vt 0.576868 0.899993
vt 0.576868 0.923696
vt 0.570088 0.899993
vt 0.570088 0.923696
vt 0.563403 0.899993
vt 0.563403 0.923696
vt 0.557201 0.899993
vt 0.557201 0.923696
vt 0.551790 0.899993
vt 0.551790 0.923696
vt 0.547348 0.899993
vt 0.547348 0.923696
vt 0.517579 0.899993
vt 0.517579 0.923696
vt 0.025916 0.899993
vt 0.636324 0.923696
vt 0.245744 0.563492
vt 0.245742 0.555818
vt 0.245740 0.547491
vt 0.245738 0.538832
vt 0.245757 0.627607
vt 0.282850 0.627599
vt 0.288386 0.627597
vt 0.295127 0.627596
vt 0.302855 0.627595
vt 0.311184 0.627593
vt 0.319632 0.627591
vt 0.328288 0.627589
vt 0.336618 0.627587
vt 0.344346 0.627586
vt 0.351087 0.627584
vt 0.393715 0.627575
vt 0.393702 0.563460
vt 0.393700 0.555786
vt 0.393699 0.547460
vt 0.393697 0.538800
vt 0.229879 0.899993
vt 0.222892 0.899993
vt 0.215908 0.899993
vt 0.245726 0.479648
vt 0.375086 0.899993
vt 0.313617 0.899993
vt 0.320604 0.899993
vt 0.327588 0.899993
vt 0.364092 0.479623
vt 0.393684 0.479617
vt 0.299645 0.899993
vt 0.306637 0.899993
vt 0.292653 0.899993
vt 0.285630 0.899993
vt 0.278645 0.899993
vt 0.271831 0.899993
vt 0.264850 0.899993
vt 0.257865 0.899993
vt 0.250843 0.899993
vt 0.243851 0.899993
vt 0.236859 0.899993
vt 0.391076 0.730812
vt 0.391076 0.723194
vt 0.391077 0.714927
vt 0.391077 0.706331
vt 0.391074 0.794461
vt 0.281013 0.794458
vt 0.354251 0.794460
vt 0.348755 0.794460
vt 0.342063 0.794460
vt 0.334391 0.794459
vt 0.326122 0.794459
vt 0.317736 0.794459
vt 0.309142 0.794459
vt 0.300873 0.794458
vt 0.293201 0.794458
vt 0.286509 0.794458
vt 0.244190 0.794456
vt 0.244192 0.730807
vt 0.244192 0.723189
vt 0.244192 0.714923
vt 0.244193 0.706326
vt 0.229879 0.923696
vt 0.222892 0.923696
vt 0.215908 0.923696
vt 0.168410 0.923696
vt 0.244195 0.647573
vt 0.313617 0.923696
vt 0.320604 0.923696
vt 0.327588 0.923696
vt 0.361702 0.647576
vt 0.391079 0.647577
vt 0.306637 0.923696
vt 0.299645 0.923696
vt 0.292653 0.923696
vt 0.285630 0.923696
vt 0.278645 0.923696
vt 0.271831 0.923696
vt 0.264850 0.923696
vt 0.257865 0.923696
vt 0.250843 0.923696
vt 0.243851 0.923696
vt 0.236859 0.923696
vt 0.025917 0.923696
vt 0.356623 0.627583
vt 0.636324 0.899993
vn 0.000000 -0.012783 0.999918
vn 0.000000 0.000000 1.000000
vn 0.000000 0.000000 1.000000
vn 0.000000 -0.012783 0.999918
vn 0.000000 -0.196679 0.980468
vn 0.000000 -0.196679 0.980468
vn 0.000000 -0.382986 0.923754
vn 0.000000 -0.382986 0.923754
vn 0.000000 -0.555853 0.831281
vn 0.000000 -0.555853 0.831281
vn 0.000000 -0.707973 0.706240
vn 0.000000 -0.707973 0.706240
vn 0.000000 -0.832707 0.553715
vn 0.000000 -0.832707 0.553715
vn 0.000000 -0.012783 -0.999918
vn 0.000000 0.000000 -1.000000
vn 0.000000 0.000000 -1.000000
vn 0.000000 -0.012783 -0.999918
vn 0.000000 -0.924345 0.381557
vn 0.000000 -0.924345 0.381557
vn 0.000000 -0.980783 0.195101
vn 0.000000 -0.980783 0.195101
vn 0.000000 -1.000000 0.000000
vn 0.000000 -1.000000 0.000000
vn 0.000000 -0.196679 -0.980468
vn 0.000000 -0.196679 -0.980468
vn 0.000000 -0.980321 -0.197410
vn 0.000000 -0.980321 -0.197410
vn 0.000000 -0.924345 -0.381557
vn 0.000000 -0.924345 -0.381557
vn 0.000000 -0.382985 -0.923755
vn 0.000000 -0.382985 -0.923755
vn 0.000000 -0.832694 -0.553733
vn 0.000000 -0.832694 -0.553733
vn 0.000000 -0.555853 -0.831280
vn 0.000000 -0.555853 -0.831280
vn 0.000000 -0.707973 -0.706240
vn 0.000000 -0.707973 -0.706240
vn 1.000000 0.000000 0.000000
vn 1.000000 0.000000 0.000000
vn 1.000000 0.000000 0.000000
vn 1.000000 0.000000 0.000000
vn 0.000000 -1.000000 0.000000
vn 0.000000 -1.000000 0.000000
vn 0.000000 -1.000000 0.000000
vn 0.000000 -1.000000 0.000000
vn -1.000000 0.000000 0.000000
vn -1.000000 0.000000 0.000000
vn -1.000000 0.000000 0.000000
vn -1.000000 0.000000 0.000000
vn -1.000000 0.000000 0.000000
vn -1.000000 0.000000 0.000000
vn -1.000000 0.000000 0.000000
vn -1.000000 0.000000 0.000000
vn 0.000000 -1.000000 0.000000
vn 0.000000 -1.000000 0.000000
vn 0.000000 -1.000000 0.000000
vn 0.000000 -1.000000 0.000000
vn 1.000000 0.000000 0.000000
vn 1.000000 0.000000 0.000000
vn 1.000000 0.000000 0.000000
vn 1.000000 0.000000 0.000000
vn 1.000000 0.000000 0.000000
vn 1.000000 0.000000 0.000000
vn 1.000000 0.000000 0.000000
vn 1.000000 0.000000 0.000000
vn -1.000000 0.000000 0.000000
vn -1.000000 0.000000 0.000000
vn -1.000000 0.000000 0.000000
vn -1.000000 0.000000 0.000000
vn 1.000000 0.000000 0.000000
vn 1.000000 0.000000 0.000000
vn 1.000000 0.000000 0.000000
vn 1.000000 0.000000 0.000000
vn -1.000000 0.000000 0.000000
vn -1.000000 0.000000 0.000000
vn -1.000000 0.000000 0.000000
vn -1.000000 0.000000 0.000000
vn 1.000000 0.000000 0.000000
vn 1.000000 0.000000 0.000000
vn 1.000000 0.000000 0.000000
vn 1.000000 0.000000 0.000000
vn -1.000000 0.000000 0.000000
vn -1.000000 0.000000 0.000000
vn -1.000000 0.000000 0.000000
vn -1.000000 0.000000 0.000000
vn 1.000000 0.000000 0.000000
vn 1.000000 0.000000 0.000000
vn 1.000000 0.000000 0.000000
vn 1.000000 0.000000 0.000000
vn -1.000000 0.000000 0.000000
vn -1.000000 0.000000 0.000000
vn -1.000000 0.000000 0.000000
vn -1.000000 0.000000 0.000000
vn 1.000000 0.000000 0.000000
vn 1.000000 0.000000 0.000000
vn 1.000000 0.000000 0.000000
vn 1.000000 0.000000 0.000000
vn -1.000000 0.000000 0.000000
vn -1.000000 0.000000 0.000000
vn -1.000000 0.000000 0.000000
vn -1.000000 0.000000 0.000000
vn 1.000000 0.000000 0.000000
vn 1.000000 0.000000 0.000000
vn 1.000000 0.000000 0.000000
vn 1.000000 0.000000 0.000000
vn -1.000000 0.000000 0.000000
vn -1.000000 0.000000 0.000000
vn -1.000000 0.000000 0.000000
vn -1.000000 0.000000 0.000000
vn 1.000000 0.000000 0.000000
vn 1.000000 0.000000 0.000000
vn 1.000000 0.000000 0.000000
vn 1.000000 0.000000 0.000000
vn -1.000000 0.000000 0.000000
vn -1.000000 0.000000 0.000000
vn -1.000000 0.000000 0.000000
vn -1.000000 0.000000 0.000000
vn 1.000000 0.000000 0.000000
vn 1.000000 0.000000 0.000000
vn 1.000000 0.000000 0.000000
vn 1.000000 0.000000 0.000000
vn -1.000000 0.000000 0.000000
vn -1.000000 0.000000 0.000000
vn -1.000000 0.000000 0.000000
vn -1.000000 0.000000 0.000000
vn 1.000000 0.000000 0.000000
vn 1.000000 0.000000 0.000000
vn 1.000000 0.000000 0.000000
vn 1.000000 0.000000 0.000000
vn -1.000000 0.000000 0.000000
vn -1.000000 0.000000 0.000000
vn -1.000000 0.000000 0.000000
vn -1.000000 0.000000 0.000000
vn 1.000000 0.000000 0.000000
vn 1.000000 0.000000 0.000000
vn 1.000000 0.000000 0.000000
vn 1.000000 0.000000 0.000000
vn -1.000000 0.000000 0.000000
vn -1.000000 0.000000 0.000000
vn -1.000000 0.000000 0.000000
vn -1.000000 0.000000 0.000000
vn 1.000000 0.000000 0.000000
vn 1.000000 0.000000 0.000000
vn 1.000000 0.000000 0.000000
vn 1.000000 0.000000 0.000000
vn -1.000000 0.000000 0.000000
vn -1.000000 0.000000 0.000000
vn -1.000000 0.000000 0.000000
vn -1.000000 0.000000 0.000000
vn 1.000000 0.000000 0.000000
vn 1.000000 0.000000 0.000000
vn 1.000000 0.000000 0.000000
vn 1.000000 0.000000 0.000000
vn -1.000000 0.000000 0.000000
vn -1.000000 0.000000 0.000000
vn -1.000000 0.000000 0.000000
vn -1.000000 0.000000 0.000000
vn 1.000000 0.000000 0.000000
vn 1.000000 0.000000 0.000000
vn 1.000000 0.000000 0.000000
vn 1.000000 0.000000 0.000000
vn -1.000000 0.000000 0.000000
vn -1.000000 0.000000 0.000000
vn -1.000000 0.000000 0.000000
vn -1.000000 0.000000 0.000000
vn 1.000000 0.000000 0.000000
vn 1.000000 0.000000 0.000000
vn 1.000000 0.000000 0.000000
vn 1.000000 0.000000 0.000000
vn -1.000000 0.000000 0.000000
vn -1.000000 0.000000 0.000000
vn -1.000000 0.000000 0.000000
vn -1.000000 0.000000 0.000000
vn 1.000000 0.000000 0.000000
vn 1.000000 0.000000 0.000000
vn 1.000000 0.000000 0.000000
vn 1.000000 0.000000 0.000000
vn -1.000000 0.000000 0.000000
vn -1.000000 0.000000 0.000000
vn -1.000000 0.000000 0.000000
vn -1.000000 0.000000 0.000000
vn 1.000000 0.000000 0.000000
vn 1.000000 0.000000 0.000000
vn 1.000000 0.000000 0.000000
vn 1.000000 0.000000 0.000000
vn -1.000000 0.000000 0.000000
vn -1.000000 0.000000 0.000000
vn -1.000000 0.000000 0.000000
vn -1.000000 0.000000 0.000000
vn 1.000000 0.000000 0.000000
vn 1.000000 0.000000 0.000000
vn 1.000000 0.000000 0.000000
vn 1.000000 0.000000 0.000000
vn -1.000000 0.000000 0.000000
vn -1.000000 0.000000 0.000000
vn -1.000000 0.000000 0.000000
vn -1.000000 0.000000 0.000000
vn 1.000000 0.000000 0.000000
vn 1.000000 0.000000 0.000000
vn 1.000000 0.000000 0.000000
vn 1.000000 0.000000 0.000000
vn -1.000000 0.000000 0.000000
vn -1.000000 0.000000 0.000000
vn -1.000000 0.000000 0.000000
vn -1.000000 0.000000 0.000000
vn 0.000000 1.000000 -0.000013
vn 0.000000 1.000000 -0.000013
vn 0.000000 1.000000 -0.000013
vn 0.000000 1.000000 -0.000013
vn 0.000000 1.000000 -0.000008
vn 0.000000 1.000000 -0.000008
vn 0.000000 1.000000 -0.000008
vn 0.000000 1.000000 -0.000008
vn 0.000000 1.000000 -0.000005
vn 0.000000 1.000000 -0.000005
vn 0.000000 1.000000 -0.000005
vn 0.000000 1.000000 -0.000005
vn 0.000000 1.000000 -0.000002
vn 0.000000 1.000000 -0.000002
vn 0.000000 1.000000 -0.000002
vn 0.000000 1.000000 -0.000002
vn 0.000000 1.000000 -0.000002
vn 0.000000 1.000000 -0.000002
vn 0.000000 1.000000 -0.000002
vn 0.000000 1.000000 -0.000002
vn 0.000000 1.000000 0.000002
vn 0.000000 1.000000 0.000002
vn 0.000000 1.000000 0.000002
vn 0.000000 1.000000 0.000002
vn 0.000000 1.000000 0.000003
vn 0.000000 1.000000 0.000003
vn 0.000000 1.000000 0.000003
vn 0.000000 1.000000 0.000003
vn 0.000000 1.000000 0.000004
vn 0.000000 1.000000 0.000004
vn 0.000000 1.000000 0.000004
vn 0.000000 1.000000 0.000004
vn 0.000000 1.000000 0.000008
vn 0.000000 1.000000 0.000008
vn 0.000000 1.000000 0.000008
vn 0.000000 1.000000 0.000008
vn 0.000000 1.000000 0.000013
vn 0.000000 1.000000 0.000013
vn 0.000000 1.000000 0.000013
vn 0.000000 1.000000 0.000013
vn 0.000000 1.000000 0.000000
vn 0.000000 1.000000 0.000000
vn 0.000000 1.000000 0.000000
vn 0.000000 1.000000 0.000000
vn 0.000000 1.000000 0.000000
vn 0.000000 1.000000 0.000000
vn 0.000000 1.000000 0.000000
vn 0.000000 1.000000 0.000000
vn 0.000000 -0.000000 -1.000000
vn 0.000000 -0.000000 -1.000000
vn 0.000000 -0.000000 -1.000000
vn 0.000000 -0.000000 -1.000000
vn 0.000000 0.000000 -1.000000
vn 0.000000 0.000000 -1.000000
vn 0.000000 0.000000 -1.000000
vn 0.000000 0.000000 -1.000000
vn 0.000000 0.000003 -1.000000
vn 0.000000 0.000003 -1.000000
vn 0.000000 0.000003 -1.000000
vn 0.000000 0.000003 -1.000000
vn 0.000000 0.000006 -1.000000
vn 0.000000 0.000006 -1.000000
vn 0.000000 0.000006 -1.000000
vn 0.000000 0.000006 -1.000000
vn 0.000000 0.000000 -1.000000
vn 0.000000 0.000000 -1.000000
vn 0.000000 0.000000 -1.000000
vn 0.000000 0.000000 -1.000000
vn 0.000000 0.000000 1.000000
vn 0.000000 0.000000 1.000000
vn 0.000000 0.000000 1.000000
vn 0.000000 0.000000 1.000000
vn 0.000000 -0.000003 1.000000
vn 0.000000 -0.000003 1.000000
vn 0.000000 -0.000003 1.000000
vn 0.000000 -0.000003 1.000000
vn 0.000000 0.000003 1.000000
vn 0.000000 0.000003 1.000000
vn 0.000000 0.000003 1.000000
vn 0.000000 0.000003 1.000000
vn 0.000000 0.000004 1.000000
vn 0.000000 0.000004 1.000000
vn 0.000000 0.000004 1.000000
vn 0.000000 0.000004 1.000000
vn 0.000000 0.000000 1.000000
vn 0.000000 0.000000 1.000000
vn 0.000000 0.000000 1.000000
vn 0.000000 0.000000 1.000000
s 1
g MMA_Entrance_01
usemtl lambert29SG
f 1/149/1 2/150/2 3/3/3 4/107/4
f 4/107/4 5/106/5 6/148/6 1/149/1
f 5/106/5 7/105/7 8/147/8 6/148/6
f 7/105/7 9/125/9 10/167/10 8/147/8
f 9/125/9 11/124/11 12/166/12 10/167/10
f 11/124/11 13/123/13 14/165/14 12/166/12
f 15/112/15 16/109/16 17/17/17 18/154/18
f 13/123/13 19/122/19 20/164/20 14/165/14
f 19/122/19 21/121/21 22/163/22 20/164/20
f 21/121/21 23/120/23 24/162/24 22/163/22
f 25/111/25 15/112/15 18/154/18 26/153/26
f 23/120/23 27/119/27 28/161/28 24/162/24
f 27/119/27 29/118/29 30/160/30 28/161/28
f 31/110/31 25/111/25 26/153/26 32/152/32
f 29/118/29 33/117/33 34/159/34 30/160/30
f 35/116/35 31/110/31 32/152/32 36/157/36
f 33/117/33 37/115/37 38/158/38 34/159/34
f 37/115/37 35/116/35 36/157/36 38/158/38
s off
f 16/16/39 15/15/40 39/88/41 40/108/42
f 17/17/43 16/109/44 40/40/45 41/41/46
f 18/18/47 17/155/48 41/156/49 42/129/50
f 2/2/51 1/1/52 43/146/53 44/151/54
f 3/3/55 2/150/56 44/44/57 45/45/58
f 4/4/59 3/113/60 45/114/61 46/104/62
f 15/15/63 25/25/64 47/87/65 39/88/66
f 26/26/67 18/18/68 42/129/69 48/128/70
f 25/25/71 31/31/72 49/86/73 47/87/74
f 32/32/75 26/26/76 48/128/77 50/127/78
f 31/31/79 35/35/80 51/85/81 49/86/82
f 36/36/83 32/32/84 50/127/85 52/126/86
f 5/5/87 4/4/88 46/104/89 53/103/90
f 1/1/91 6/6/92 54/145/93 43/146/94
f 7/7/95 5/5/96 53/103/97 55/102/98
f 6/6/99 8/8/100 56/144/101 54/145/102
f 9/9/103 7/7/104 55/102/105 57/101/106
f 8/8/107 10/10/108 58/143/109 56/144/110
f 11/11/111 9/9/112 59/169/113 60/99/114
f 10/10/115 12/12/116 61/141/117 62/131/118
f 13/13/119 11/11/120 60/99/121 63/98/122
f 12/12/123 14/14/124 64/140/125 61/141/126
f 19/19/127 13/13/128 63/98/129 65/97/130
f 14/14/131 20/20/132 66/139/133 64/140/134
f 21/21/135 19/19/136 65/97/137 67/96/138
f 20/20/139 22/22/140 68/138/141 66/139/142
f 23/23/143 21/21/144 67/96/145 69/95/146
f 22/22/147 24/24/148 70/137/149 68/138/150
f 27/27/151 23/23/152 69/95/153 71/94/154
f 24/24/155 28/28/156 72/136/157 70/137/158
f 29/29/159 27/27/160 71/94/161 73/93/162
f 28/28/163 30/30/164 74/135/165 72/136/166
f 33/33/167 29/29/168 73/93/169 75/92/170
f 30/30/171 34/34/172 76/134/173 74/135/174
f 37/37/175 33/33/176 75/92/177 77/91/178
f 34/34/179 38/38/180 78/133/181 76/134/182
f 35/35/183 37/37/184 77/91/185 79/90/186
f 38/38/187 36/36/188 80/132/189 78/133/190
f 51/85/191 35/35/192 79/90/193 81/89/194
f 36/36/195 52/126/196 82/130/197 80/132/198
f 9/9/199 57/101/200 83/100/201 59/169/202
f 58/143/203 10/10/204 62/131/205 84/142/206
f 60/60/207 59/59/208 62/62/209 61/61/210
f 63/63/211 60/60/212 61/61/213 64/64/214
f 65/65/215 63/63/216 64/64/217 66/66/218
f 67/67/219 65/65/220 66/66/221 68/68/222
f 69/69/223 67/67/224 68/68/225 70/70/226
f 71/71/227 69/69/228 70/70/229 72/72/230
f 73/73/231 71/71/232 72/72/233 74/74/234
f 75/75/235 73/73/236 74/74/237 76/76/238
f 77/77/239 75/75/240 76/76/241 78/78/242
f 79/79/243 77/77/244 78/78/245 80/80/246
f 81/81/247 79/79/248 80/80/249 82/82/250
f 59/59/251 83/170/252 84/84/253 62/62/254
f 46/46/255 45/45/256 44/44/257 43/43/258
f 53/53/259 46/46/260 43/43/261 54/54/262
f 55/55/263 53/53/264 54/54/265 56/56/266
f 57/57/267 55/55/268 56/56/269 58/58/270
f 83/83/271 57/57/272 58/58/273 84/168/274
f 40/40/275 39/39/276 42/42/277 41/41/278
f 39/39/279 47/47/280 48/48/281 42/42/282
f 47/47/283 49/49/284 50/50/285 48/48/286
f 49/49/287 51/51/288 52/52/289 50/50/290
f 51/51/291 81/81/292 82/82/293 52/52/294
