# This file uses centimeters as units for non-parametric coordinates.

mtllib TempA_Pillar_03.mtl
g default
v -4.000000 0.000000 0.000000
v 0.000000 0.000000 0.000000
v -4.000000 5.000000 0.000000
v 0.000000 5.000000 0.000000
v -4.000000 5.000000 -2.000000
v 0.000000 5.000000 -2.000000
v -4.000000 0.000000 -2.000000
v 0.000000 0.000000 -2.000000
v -2.999908 -0.000000 1.000122
v -1.000092 -0.000000 1.000122
v -1.000092 5.000000 1.000122
v -2.999908 5.000000 1.000122
v -2.999908 5.000000 -3.000000
v -1.000092 5.000000 -3.000000
v -1.000092 0.000000 -3.000000
v -2.999908 0.000000 -3.000000
vt 0.535851 0.939598
vt 0.535851 0.763751
vt 0.535851 0.690915
vt 0.681489 0.690915
vt 0.353758 0.515073
vt 0.353758 0.690915
vt 0.353759 0.763751
vt 0.208049 0.763751
vt 0.353758 0.815260
vt 0.353758 0.888090
vt 0.535851 0.888090
vt 0.535851 0.815260
vt 0.535851 0.639408
vt 0.535851 0.566579
vt 0.353759 0.566579
vt 0.353759 0.639408
vt 0.572165 0.800335
vt 0.644995 0.800335
vt 0.535851 0.515073
vt 0.681489 0.763751
vt 0.572309 0.654658
vt 0.645139 0.654658
vt 0.317229 0.800012
vt 0.208049 0.690915
vt 0.353759 0.442236
vt 0.244399 0.800012
vt 0.244543 0.654334
vt 0.317372 0.654334
vt 0.353759 0.939598
vt 0.535851 0.442236
vn 0.000000 1.000000 0.000000
vn 0.000000 1.000000 0.000000
vn 0.000000 1.000000 0.000000
vn 0.000000 1.000000 0.000000
vn 0.000000 -1.000000 0.000000
vn 0.000000 -1.000000 0.000000
vn 0.000000 -1.000000 0.000000
vn 0.000000 -1.000000 0.000000
vn 1.000000 0.000000 0.000000
vn 1.000000 0.000000 0.000000
vn 1.000000 0.000000 0.000000
vn 1.000000 0.000000 0.000000
vn -1.000000 0.000000 0.000000
vn -1.000000 0.000000 0.000000
vn -1.000000 0.000000 0.000000
vn -1.000000 0.000000 0.000000
vn 0.000000 -1.000000 -0.000000
vn 0.000000 -1.000000 -0.000000
vn 0.000000 -1.000000 -0.000000
vn 0.000000 -1.000000 -0.000000
vn 0.000000 1.000000 0.000000
vn 0.000000 1.000000 0.000000
vn 0.000000 1.000000 0.000000
vn 0.000000 1.000000 0.000000
vn -0.707118 0.000000 0.707096
vn -0.707118 0.000000 0.707096
vn -0.707118 0.000000 0.707096
vn -0.707118 0.000000 0.707096
vn 0.707118 0.000000 0.707096
vn 0.707118 0.000000 0.707096
vn 0.707118 0.000000 0.707096
vn 0.707118 0.000000 0.707096
vn 0.000000 1.000000 0.000000
vn 0.000000 1.000000 0.000000
vn 0.000000 1.000000 0.000000
vn 0.000000 1.000000 0.000000
vn 0.000000 -1.000000 0.000000
vn 0.000000 -1.000000 0.000000
vn 0.000000 -1.000000 0.000000
vn 0.000000 -1.000000 0.000000
vn -0.707074 0.000000 -0.707139
vn -0.707074 0.000000 -0.707139
vn -0.707074 0.000000 -0.707139
vn -0.707074 0.000000 -0.707139
vn 0.707074 0.000000 -0.707139
vn 0.707074 0.000000 -0.707139
vn 0.707074 0.000000 -0.707139
vn 0.707074 0.000000 -0.707139
vn 0.000000 0.000000 1.000000
vn 0.000000 0.000000 1.000000
vn 0.000000 0.000000 1.000000
vn 0.000000 0.000000 1.000000
vn 0.000000 0.000000 -1.000000
vn 0.000000 0.000000 -1.000000
vn 0.000000 0.000000 -1.000000
vn 0.000000 0.000000 -1.000000
s off
g TempA_Pillar_03
usemtl lambert28SG
f 3/20/1 4/2/2 6/3/3 5/4/4
f 7/24/5 8/6/6 2/7/7 1/8/8
f 2/7/9 8/6/10 6/3/11 4/2/12
f 7/5/13 1/25/14 3/30/15 5/19/16
f 1/8/17 2/7/18 10/23/19 9/26/20
f 4/2/21 3/20/22 12/18/23 11/17/24
f 3/1/25 1/29/26 9/10/27 12/11/28
f 2/7/29 4/2/30 11/12/31 10/9/32
f 5/4/33 6/3/34 14/21/35 13/22/36
f 8/6/37 7/24/38 16/27/39 15/28/40
f 7/5/41 5/19/42 13/14/43 16/15/44
f 6/3/45 8/6/46 15/16/47 14/13/48
f 9/10/49 10/9/50 11/12/51 12/11/52
f 13/14/53 14/13/54 15/16/55 16/15/56
