# This file uses centimeters as units for non-parametric coordinates.

mtllib TempA_CurvedWall_01.mtl
g default
v 4.607933 0.000000 3.980736
v 4.219640 0.000000 3.923138
v 3.838863 0.000000 3.827758
v 3.469267 0.000000 3.695515
v 3.114414 0.000000 3.527682
v 2.777719 0.000000 3.325877
v 2.462429 0.000000 3.092038
v 2.171574 0.000000 2.828424
v 1.907961 0.000000 2.537570
v 1.674122 0.000000 2.222280
v 1.472317 0.000000 1.885587
v 1.304481 0.000000 1.530734
v 1.172240 0.000000 1.161138
v 1.076858 0.000000 0.780359
v 1.019262 0.000000 0.392071
v 1.000000 0.000000 -0.000000
v 5.000000 0.000000 3.999998
v 4.509916 0.000000 4.975920
v 4.024550 0.000000 4.903925
v 3.548578 0.000000 4.784699
v 3.086584 0.000000 4.619394
v 2.643017 0.000000 4.409604
v 2.222151 0.000000 4.157346
v 1.828035 0.000000 3.865049
v 1.464468 0.000000 3.535533
v 1.134951 0.000000 3.171963
v 0.842654 0.000000 2.777848
v 0.590395 0.000000 2.356982
v 0.380604 0.000000 1.913415
v 0.215299 0.000000 1.451422
v 0.096076 0.000000 0.975452
v 0.024078 0.000000 0.490086
v 0.000002 0.000000 0.000001
v 5.000000 0.000000 4.999998
v 4.509916 5.000000 4.975920
v 4.024550 5.000000 4.903925
v 3.548578 5.000000 4.784699
v 3.086584 5.000000 4.619394
v 2.643017 5.000000 4.409604
v 2.222151 5.000000 4.157346
v 1.828035 5.000000 3.865049
v 1.464468 5.000000 3.535533
v 1.134951 5.000000 3.171963
v 0.842654 5.000000 2.777848
v 0.590395 5.000000 2.356982
v 0.380604 5.000000 1.913415
v 0.215299 5.000000 1.451422
v 0.096076 5.000000 0.975452
v 0.024078 5.000000 0.490086
v 0.000002 5.000000 0.000001
v 5.000000 5.000000 4.999998
v 4.607933 5.000000 3.980736
v 4.219640 5.000000 3.923138
v 3.838863 5.000000 3.827758
v 3.469267 5.000000 3.695515
v 3.114414 5.000000 3.527682
v 2.777719 5.000000 3.325877
v 2.462429 5.000000 3.092038
v 2.171574 5.000000 2.828424
v 1.907961 5.000000 2.537570
v 1.674122 5.000000 2.222280
v 1.472317 5.000000 1.885587
v 1.304481 5.000000 1.530734
v 1.172240 5.000000 1.161138
v 1.076858 5.000000 0.780359
v 1.019262 5.000000 0.392071
v 1.000000 5.000000 -0.000000
v 5.000000 5.000000 3.999998
vt 0.050046 0.057162
vt 0.313139 0.038034
vt 0.304849 0.038034
vt 0.056099 0.057162
vt 0.296559 0.038034
vt 0.062151 0.057162
vt 0.288269 0.038034
vt 0.068204 0.057162
vt 0.279978 0.038034
vt 0.074257 0.057162
vt 0.271688 0.038034
vt 0.080309 0.057162
vt 0.263398 0.038034
vt 0.086362 0.057162
vt 0.255107 0.038034
vt 0.092414 0.057162
vt 0.246817 0.038034
vt 0.098467 0.057162
vt 0.238527 0.038034
vt 0.104520 0.057162
vt 0.230236 0.038034
vt 0.110572 0.057162
vt 0.221946 0.038034
vt 0.116625 0.057162
vt 0.213656 0.038034
vt 0.122678 0.057162
vt 0.205366 0.038034
vt 0.128730 0.057162
vt 0.197075 0.038034
vt 0.134783 0.057162
vt 0.188785 0.038034
vt 0.140835 0.057162
vt 0.043994 0.057162
vt 0.028575 0.057162
vt 0.043626 0.438708
vt 0.049264 0.443035
vt 0.055299 0.446788
vt 0.061673 0.449932
vt 0.068324 0.452436
vt 0.075188 0.454276
vt 0.082200 0.455435
vt 0.089292 0.455900
vt 0.096395 0.455669
vt 0.103441 0.454742
vt 0.110363 0.453128
vt 0.117093 0.450845
vt 0.123566 0.447912
vt 0.129721 0.444360
vt 0.135499 0.440221
vt 0.140842 0.435535
vt 0.028575 0.417392
vt 0.050046 0.417392
vt 0.056099 0.417392
vt 0.062151 0.417392
vt 0.068204 0.417392
vt 0.074257 0.417392
vt 0.080309 0.417392
vt 0.086362 0.417392
vt 0.092414 0.417392
vt 0.098467 0.417392
vt 0.104520 0.417392
vt 0.110572 0.417392
vt 0.116625 0.417392
vt 0.122678 0.417392
vt 0.128730 0.417392
vt 0.134783 0.417392
vt 0.140835 0.417392
vt 0.043994 0.417392
vt 0.313139 0.432762
vt 0.197075 0.432762
vt 0.205366 0.432762
vt 0.213656 0.432762
vt 0.221946 0.432762
vt 0.230236 0.432762
vt 0.238527 0.432762
vt 0.246817 0.432762
vt 0.255107 0.432762
vt 0.263398 0.432762
vt 0.271688 0.432762
vt 0.279978 0.432762
vt 0.288269 0.432762
vt 0.296559 0.432762
vt 0.304849 0.432762
vt 0.321430 0.432762
vt 0.321430 0.038034
vt 0.045079 0.033355
vt 0.136894 0.029763
vt 0.131024 0.025755
vt 0.124790 0.022343
vt 0.118252 0.019558
vt 0.111472 0.017427
vt 0.104516 0.015971
vt 0.097450 0.015204
vt 0.090344 0.015133
vt 0.083264 0.015759
vt 0.076281 0.017076
vt 0.069460 0.019071
vt 0.062867 0.021725
vt 0.056566 0.025012
vt 0.050618 0.028901
vt 0.142342 0.034326
vt 0.188785 0.432762
vt 0.038440 0.433849
vt 0.040004 0.038330
vt 0.156254 0.057162
vt 0.156254 0.417392
vt 0.050638 0.048163
vt 0.054698 0.044183
vt 0.128150 0.041309
vt 0.132509 0.044960
vt 0.123454 0.038104
vt 0.118467 0.035374
vt 0.113236 0.033146
vt 0.107812 0.031441
vt 0.102248 0.030276
vt 0.096595 0.029662
vt 0.090910 0.029606
vt 0.085247 0.030106
vt 0.079660 0.031160
vt 0.074203 0.032756
vt 0.068928 0.034879
vt 0.063888 0.037509
vt 0.059129 0.040620
vt 0.048849 0.423777
vt 0.052998 0.427664
vt 0.126496 0.428875
vt 0.130771 0.425126
vt 0.121874 0.432186
vt 0.116950 0.435028
vt 0.111771 0.437374
vt 0.106387 0.439201
vt 0.100850 0.440491
vt 0.095213 0.441233
vt 0.089530 0.441418
vt 0.083857 0.441046
vt 0.078248 0.440119
vt 0.072756 0.438647
vt 0.067435 0.436644
vt 0.062336 0.434129
vt 0.057508 0.431126
vn 0.000000 -1.000000 0.000000
vn 0.000000 -1.000000 0.000000
vn 0.000000 -1.000000 0.000000
vn 0.000000 -1.000000 0.000000
vn 0.000000 -1.000000 0.000000
vn 0.000000 -1.000000 0.000000
vn 0.000000 -1.000000 0.000000
vn 0.000000 -1.000000 0.000000
vn 0.000000 -1.000000 0.000000
vn 0.000000 -1.000000 0.000000
vn 0.000000 -1.000000 0.000000
vn 0.000000 -1.000000 0.000000
vn 0.000000 -1.000000 0.000000
vn 0.000000 -1.000000 0.000000
vn 0.000000 -1.000000 0.000000
vn 0.000000 -1.000000 0.000000
vn 0.000000 -1.000000 0.000000
vn 0.000000 -1.000000 0.000000
vn 0.000000 -1.000000 0.000000
vn 0.000000 -1.000000 0.000000
vn 0.000000 -1.000000 0.000000
vn 0.000000 -1.000000 0.000000
vn 0.000000 -1.000000 0.000000
vn 0.000000 -1.000000 0.000000
vn 0.000000 -1.000000 0.000000
vn 0.000000 -1.000000 0.000000
vn 0.000000 -1.000000 0.000000
vn 0.000000 -1.000000 0.000000
vn 0.000000 -1.000000 0.000000
vn 0.000000 -1.000000 0.000000
vn 0.000000 -1.000000 0.000000
vn 0.000000 -1.000000 0.000000
vn 0.000000 -1.000000 0.000000
vn 0.000000 -1.000000 0.000000
vn -0.098017 0.000000 0.995185
vn -0.098017 0.000000 0.995185
vn -0.195090 0.000000 0.980785
vn -0.195090 0.000000 0.980785
vn -0.290287 0.000000 0.956940
vn -0.290287 0.000000 0.956940
vn -0.382683 0.000000 0.923880
vn -0.382683 0.000000 0.923880
vn -0.471396 0.000000 0.881922
vn -0.471396 0.000000 0.881922
vn -0.555571 0.000000 0.831469
vn -0.555571 0.000000 0.831469
vn -0.634393 0.000000 0.773011
vn -0.634393 0.000000 0.773011
vn -0.707108 0.000000 0.707106
vn -0.707108 0.000000 0.707106
vn -0.773011 0.000000 0.634393
vn -0.773011 0.000000 0.634393
vn -0.831468 0.000000 0.555573
vn -0.831468 0.000000 0.555573
vn -0.881921 0.000000 0.471397
vn -0.881921 0.000000 0.471397
vn -0.923880 0.000000 0.382684
vn -0.923880 0.000000 0.382684
vn -0.956940 0.000000 0.290286
vn -0.956940 0.000000 0.290286
vn -0.980785 0.000000 0.195090
vn -0.980785 0.000000 0.195090
vn -0.995185 0.000000 0.098017
vn -0.995185 0.000000 0.098017
vn -0.998796 0.000000 0.049066
vn -0.998796 0.000000 0.049066
vn -0.049071 0.000000 0.998795
vn -0.049071 0.000000 0.998795
vn 0.000000 1.000000 0.000000
vn 0.000000 1.000000 0.000000
vn 0.000000 1.000000 0.000000
vn 0.000000 1.000000 0.000000
vn 0.000000 1.000000 0.000000
vn 0.000000 1.000000 0.000000
vn 0.000000 1.000000 0.000000
vn 0.000000 1.000000 0.000000
vn 0.000000 1.000000 0.000000
vn 0.000000 1.000000 0.000000
vn 0.000000 1.000000 0.000000
vn 0.000000 1.000000 0.000000
vn 0.000000 1.000000 0.000000
vn 0.000000 1.000000 0.000000
vn 0.000000 1.000000 0.000000
vn 0.000000 1.000000 0.000000
vn 0.000000 1.000000 0.000000
vn 0.000000 1.000000 0.000000
vn 0.000000 1.000000 0.000000
vn 0.000000 1.000000 0.000000
vn 0.000000 1.000000 0.000000
vn 0.000000 1.000000 0.000000
vn 0.000000 1.000000 0.000000
vn 0.000000 1.000000 0.000000
vn 0.000000 1.000000 0.000000
vn 0.000000 1.000000 0.000000
vn 0.000000 1.000000 0.000000
vn 0.000000 1.000000 0.000000
vn 0.000000 1.000000 0.000000
vn 0.000000 1.000000 0.000000
vn 0.000000 1.000000 0.000000
vn 0.000000 1.000000 0.000000
vn 0.000000 1.000000 0.000000
vn 0.000000 1.000000 0.000000
vn 0.098020 0.000000 -0.995184
vn 0.098020 0.000000 -0.995184
vn 0.195092 0.000000 -0.980785
vn 0.195092 0.000000 -0.980785
vn 0.290284 0.000000 -0.956941
vn 0.290284 0.000000 -0.956941
vn 0.382683 0.000000 -0.923880
vn 0.382683 0.000000 -0.923880
vn 0.471395 0.000000 -0.881922
vn 0.471395 0.000000 -0.881922
vn 0.555571 0.000000 -0.831469
vn 0.555571 0.000000 -0.831469
vn 0.634395 0.000000 -0.773009
vn 0.634395 0.000000 -0.773009
vn 0.707107 0.000000 -0.707106
vn 0.707107 0.000000 -0.707106
vn 0.773008 0.000000 -0.634396
vn 0.773008 0.000000 -0.634396
vn 0.831468 0.000000 -0.555573
vn 0.831468 0.000000 -0.555573
vn 0.881921 0.000000 -0.471398
vn 0.881921 0.000000 -0.471398
vn 0.923879 0.000000 -0.382684
vn 0.923879 0.000000 -0.382684
vn 0.956941 0.000000 -0.290284
vn 0.956941 0.000000 -0.290284
vn 0.980785 0.000000 -0.195091
vn 0.980785 0.000000 -0.195091
vn 0.995185 0.000000 -0.098016
vn 0.995185 0.000000 -0.098016
vn 0.998795 0.000000 -0.049069
vn 0.998795 0.000000 -0.049069
vn 0.049070 0.000000 -0.998795
vn 0.049070 0.000000 -0.998795
vn -0.000001 0.000000 -1.000000
vn -0.000001 0.000000 -1.000000
vn -0.000001 0.000000 -1.000000
vn -0.000001 0.000000 -1.000000
vn 1.000000 0.000000 0.000000
vn 1.000000 0.000000 0.000000
vn 1.000000 0.000000 0.000000
vn 1.000000 0.000000 0.000000
s 1
g TempA_CurvedWall_01 pCylinder26
usemtl lambert29SG
f 1/108/1 18/86/2 19/100/3 2/123/4
f 2/123/4 19/100/3 20/99/5 3/122/6
f 3/122/6 20/99/5 21/98/7 4/121/8
f 4/121/8 21/98/7 22/97/9 5/120/10
f 5/120/10 22/97/9 23/96/11 6/119/12
f 6/119/12 23/96/11 24/95/13 7/118/14
f 7/118/14 24/95/13 25/94/15 8/117/16
f 8/117/16 25/94/15 26/93/17 9/116/18
f 9/116/18 26/93/17 27/92/19 10/115/20
f 10/115/20 27/92/19 28/91/21 11/114/22
f 11/114/22 28/91/21 29/90/23 12/113/24
f 12/113/24 29/90/23 30/89/25 13/112/26
f 13/112/26 30/89/25 31/88/27 14/111/28
f 14/111/28 31/88/27 32/87/29 15/109/30
f 15/109/30 32/87/29 33/101/31 16/110/32
f 17/107/33 34/104/34 18/86/2 1/108/1
s 2
f 18/2/35 35/69/36 36/83/37 19/3/38
f 19/3/38 36/83/37 37/82/39 20/5/40
f 20/5/40 37/82/39 38/81/41 21/7/42
f 21/7/42 38/81/41 39/80/43 22/9/44
f 22/9/44 39/80/43 40/79/45 23/11/46
f 23/11/46 40/79/45 41/78/47 24/13/48
f 24/13/48 41/78/47 42/77/49 25/15/50
f 25/15/50 42/77/49 43/76/51 26/17/52
f 26/17/52 43/76/51 44/75/53 27/19/54
f 27/19/54 44/75/53 45/74/55 28/21/56
f 28/21/56 45/74/55 46/73/57 29/23/58
f 29/23/58 46/73/57 47/72/59 30/25/60
f 30/25/60 47/72/59 48/71/61 31/27/62
f 31/27/62 48/71/61 49/70/63 32/29/64
f 32/29/64 49/70/63 50/102/65 33/31/66
f 34/85/67 51/84/68 35/69/36 18/2/35
s 3
f 35/35/69 52/125/70 53/140/71 36/36/72
f 36/36/72 53/140/71 54/139/73 37/37/74
f 37/37/74 54/139/73 55/138/75 38/38/76
f 38/38/76 55/138/75 56/137/77 39/39/78
f 39/39/78 56/137/77 57/136/79 40/40/80
f 40/40/80 57/136/79 58/135/81 41/41/82
f 41/41/82 58/135/81 59/134/83 42/42/84
f 42/42/84 59/134/83 60/133/85 43/43/86
f 43/43/86 60/133/85 61/132/87 44/44/88
f 44/44/88 61/132/87 62/131/89 45/45/90
f 45/45/90 62/131/89 63/130/91 46/46/92
f 46/46/92 63/130/91 64/129/93 47/47/94
f 47/47/94 64/129/93 65/128/95 48/48/96
f 48/48/96 65/128/95 66/126/97 49/49/98
f 49/49/98 66/126/97 67/127/99 50/50/100
f 51/103/101 68/124/102 52/125/70 35/35/69
s 4
f 52/52/103 1/1/104 2/4/105 53/53/106
f 53/53/106 2/4/105 3/6/107 54/54/108
f 54/54/108 3/6/107 4/8/109 55/55/110
f 55/55/110 4/8/109 5/10/111 56/56/112
f 56/56/112 5/10/111 6/12/113 57/57/114
f 57/57/114 6/12/113 7/14/115 58/58/116
f 58/58/116 7/14/115 8/16/117 59/59/118
f 59/59/118 8/16/117 9/18/119 60/60/120
f 60/60/120 9/18/119 10/20/121 61/61/122
f 61/61/122 10/20/121 11/22/123 62/62/124
f 62/62/124 11/22/123 12/24/125 63/63/126
f 63/63/126 12/24/125 13/26/127 64/64/128
f 64/64/128 13/26/127 14/28/129 65/65/130
f 65/65/130 14/28/129 15/30/131 66/66/132
f 66/66/132 15/30/131 16/32/133 67/67/134
f 68/68/135 17/33/136 1/1/104 52/52/103
s off
f 33/105/137 50/106/138 67/67/139 16/32/140
f 34/34/141 17/33/142 68/68/143 51/51/144
