# This file uses centimeters as units for non-parametric coordinates.

mtllib Frame2_straight_01.mtl
g default
v 0.000000 0.111914 -0.000000
v 1.000000 0.111914 -0.000000
v 0.000000 0.000000 0.000000
v 1.000000 0.000000 0.000000
v 0.500000 0.000000 0.094070
v 0.500000 0.000000 0.000000
v 0.500000 0.111914 -0.000000
v 0.500000 0.111914 0.094070
v 0.000000 0.111914 0.094070
v 0.000000 0.000000 0.094070
v 1.000000 0.000000 0.094070
v 1.000000 0.111914 0.094070
vt 0.616608 0.910140
vt 0.616608 0.090213
vt 0.894061 0.910140
vt 0.894061 0.090213
vt 0.105939 0.500088
vt 0.894061 0.500088
vt 0.616608 0.500088
vt 0.383392 0.500088
vt 0.383472 0.909969
vt 0.106491 0.909930
vt 0.106491 0.090098
vt 0.383472 0.090091
vn 0.000000 0.000000 1.000000
vn 0.000000 0.000000 1.000000
vn 0.000000 0.000000 1.000000
vn 0.000000 0.000000 1.000000
vn 0.000000 1.000000 0.000000
vn 0.000000 1.000000 0.000000
vn 0.000000 1.000000 0.000000
vn 0.000000 1.000000 0.000000
vn 0.000000 -0.000000 -1.000000
vn 0.000000 -0.000000 -1.000000
vn 0.000000 -0.000000 -1.000000
vn 0.000000 -0.000000 -1.000000
vn 0.000000 -0.000000 -1.000000
vn 0.000000 -0.000000 -1.000000
vn 0.000000 1.000000 0.000000
vn 0.000000 1.000000 0.000000
vn 0.000000 0.000000 1.000000
vn 0.000000 0.000000 1.000000
s 1
g Frame2_straight_01
usemtl initialShadingGroup
f 8/8/1 5/5/2 11/11/3 12/12/4
s 2
f 7/7/5 8/8/6 12/12/7 2/2/8
s 3
f 6/6/9 7/7/10 2/2/11 4/4/12
f 1/1/13 7/7/10 6/6/9 3/3/14
s 2
f 1/1/15 9/9/16 8/8/6 7/7/5
s 1
f 9/9/17 10/10/18 5/5/2 8/8/1
