# This file uses centimeters as units for non-parametric coordinates.

mtllib TempA_Plinth_01.mtl
g default
v -1.000000 1.000000 -1.000000
v 0.000000 1.000000 -1.000000
v -1.000000 0.000000 -1.000000
v 0.000000 0.000000 -1.000000
v -0.970948 0.970948 -1.000000
v -0.029052 0.970948 -1.000000
v -0.029052 0.029052 -1.000000
v -0.970948 0.029052 -1.000000
v -0.970948 0.970948 -0.976602
v -0.029052 0.970948 -0.976602
v -0.029052 0.029052 -0.976602
v -0.970948 0.029052 -0.976602
v -1.000000 1.000000 0.000000
v -1.000000 0.000000 0.000000
v -1.000000 0.970948 -0.029052
v -1.000000 0.970948 -0.970948
v -1.000000 0.029052 -0.970948
v -1.000000 0.029052 -0.029052
v -0.976602 0.970948 -0.029052
v -0.976602 0.970948 -0.970948
v -0.976602 0.029052 -0.970948
v -0.976602 0.029052 -0.029052
v 0.000000 1.000000 0.000000
v 0.000000 0.000000 0.000000
v -0.029052 0.970948 0.000000
v -0.970948 0.970948 0.000000
v -0.970948 0.029052 0.000000
v -0.029052 0.029052 0.000000
v -0.029052 0.970948 -0.023398
v -0.970948 0.970948 -0.023398
v -0.970948 0.029052 -0.023398
v -0.029052 0.029052 -0.023398
v 0.000000 0.970948 -0.970948
v 0.000000 0.970948 -0.029052
v 0.000000 0.029052 -0.029052
v 0.000000 0.029052 -0.970948
v -0.023398 0.970948 -0.970948
v -0.023398 0.970948 -0.029052
v -0.023398 0.029052 -0.029052
v -0.023398 0.029052 -0.970948
v -0.013012 1.000000 -0.013012
v -0.986988 1.000000 -0.013012
v -0.013012 1.000000 -0.986988
v -0.986988 1.000000 -0.986988
v -0.500000 1.000000 0.000000
v -0.500000 0.970948 0.000000
v -0.500000 0.970948 -0.023398
v -0.500000 0.029052 -0.023398
v -0.500000 0.029052 0.000000
v -0.500000 0.000000 0.000000
v -0.500000 0.000000 -1.000000
v -0.500000 0.029052 -1.000000
v -0.500000 0.029052 -0.976602
v -0.500000 0.970948 -0.976602
v -0.500000 0.970948 -1.000000
v -0.500000 1.000000 -1.000000
v -0.500000 1.000000 -0.986988
v -0.500000 1.000000 -0.013012
v -0.013012 1.000000 -0.500000
v 0.000000 1.000000 -0.500000
v 0.000000 0.970948 -0.500000
v -0.023398 0.970948 -0.500000
v -0.023398 0.029052 -0.500000
v 0.000000 0.029052 -0.500000
v 0.000000 0.000000 -0.500000
v -0.500000 0.000000 -0.500000
v -1.000000 0.000000 -0.500000
v -1.000000 0.029052 -0.500000
v -0.976602 0.029052 -0.500000
v -0.976602 0.970948 -0.500000
v -1.000000 0.970948 -0.500000
v -1.000000 1.000000 -0.500000
v -0.986988 1.000000 -0.500000
v -0.500000 1.000000 -0.500000
vt 0.200128 0.468530
vt 0.081284 0.468530
vt 0.081284 0.230840
vt 0.200128 0.230840
vt 0.500000 0.783203
vt 0.073773 0.481766
vt 0.081284 0.474434
vt 0.200128 0.474434
vt 0.067442 0.517127
vt 0.081284 0.224936
vt 0.067442 0.649685
vt 0.200128 0.224936
vt 0.067442 0.782243
vt 0.628020 0.216797
vt 0.318973 0.474434
vt 0.324878 0.230840
vt 0.318973 0.468530
vt 0.318973 0.230840
vt 0.500128 0.230113
vt 0.619700 0.230113
vt 0.619700 0.469257
vt 0.500128 0.469257
vt 0.366482 0.649685
vt 0.619700 0.224173
vt 0.500128 0.224173
vt 0.619700 0.475197
vt 0.500128 0.482573
vt 0.500128 0.475197
vt 0.332558 0.782243
vt 0.673951 0.481509
vt 0.380557 0.224173
vt 0.374616 0.469257
vt 0.380557 0.230113
vt 0.380557 0.469257
vt 0.918742 0.468299
vt 0.800128 0.468299
vt 0.800128 0.231071
vt 0.918742 0.231071
vt 0.674339 0.781606
vt 0.500000 0.516167
vt 0.800128 0.474192
vt 0.918742 0.474192
vt 0.681514 0.225178
vt 0.681514 0.474192
vt 0.332558 0.649685
vt 0.332558 0.517127
vt 0.924635 0.231071
vt 0.800128 0.225178
vt 0.681514 0.231071
vt 0.681514 0.468299
vt 0.918701 0.768386
vt 0.800000 0.768386
vt 0.800000 0.530984
vt 0.918701 0.530984
vt 0.800000 0.781606
vt 0.800000 0.774283
vt 0.918701 0.774283
vt 0.681299 0.525087
vt 0.681299 0.774283
vt 0.200000 0.517127
vt 0.924598 0.530984
vt 0.800000 0.525087
vt 0.681299 0.530984
vt 0.681299 0.768386
vt 0.200000 0.649685
vt 0.500000 0.519642
vt 0.630044 0.519642
vt 0.630044 0.779729
vt 0.630044 0.649685
vt 0.500000 0.779729
vt 0.369956 0.649685
vt 0.369956 0.779729
vt 0.500000 0.649685
vt 0.369956 0.519642
vt 0.633518 0.649685
vt 0.633518 0.516167
vt 0.800128 0.481509
vt 0.367240 0.221793
vt 0.200128 0.481766
vt 0.633518 0.783203
vt 0.332209 0.476041
vt 0.326484 0.217604
vt 0.200128 0.217604
vt 0.668304 0.223508
vt 0.800128 0.217861
vt 0.931952 0.475863
vt 0.926306 0.217861
vt 0.931921 0.775346
vt 0.068048 0.223330
vt 0.366482 0.783203
vt 0.500128 0.216797
vt 0.366482 0.516167
vt 0.633017 0.477577
vt 0.200000 0.782243
vt 0.372236 0.482573
vt 0.925661 0.517764
vt 0.800000 0.517764
vt 0.668079 0.524024
vt 0.931952 0.224001
vt 0.918742 0.225178
vt 0.925813 0.481509
vt 0.924635 0.468299
vt 0.668304 0.475370
vt 0.675621 0.468299
vt 0.674444 0.217861
vt 0.675621 0.231071
vt 0.626132 0.482574
vt 0.625641 0.469257
vt 0.367240 0.475689
vt 0.380557 0.475197
vt 0.332209 0.223689
vt 0.318973 0.224936
vt 0.074132 0.217604
vt 0.075379 0.230840
vt 0.931921 0.523299
vt 0.918701 0.525087
vt 0.673615 0.517764
vt 0.675402 0.530984
vt 0.668079 0.776071
vt 0.675402 0.768386
vt 0.926386 0.781606
vt 0.924598 0.768386
vt 0.068048 0.475681
vt 0.075379 0.468530
vt 0.326125 0.481766
vt 0.324878 0.468530
vt 0.633017 0.223682
vt 0.625641 0.230113
vt 0.374125 0.216797
vt 0.374616 0.230113
vn 0.000000 0.000000 -1.000000
vn 0.000000 0.000000 -1.000000
vn 0.000000 0.000000 -1.000000
vn 0.000000 0.000000 -1.000000
vn 0.000000 0.000000 -1.000000
vn 0.000000 0.000000 -1.000000
vn 0.000000 0.000000 -1.000000
vn 0.000000 0.000000 -1.000000
vn 0.000000 0.000000 -1.000000
vn 0.000000 0.000000 -1.000000
vn 0.000000 0.000000 -1.000000
vn 0.000000 0.000000 -1.000000
vn 0.000000 0.000000 -1.000000
vn 0.000000 0.000000 -1.000000
vn 0.000000 0.000000 -1.000000
vn 0.000000 0.000000 -1.000000
vn 0.000001 0.000000 -1.000000
vn 0.000001 0.000000 -1.000000
vn 0.000001 0.000000 -1.000000
vn 0.000001 0.000000 -1.000000
vn 0.000000 -1.000000 0.000000
vn 0.000000 -1.000000 0.000000
vn 0.000000 -1.000000 0.000000
vn 0.000000 -1.000000 0.000000
vn -1.000000 0.000000 0.000000
vn -1.000000 0.000000 0.000000
vn -1.000000 0.000000 0.000000
vn -1.000000 0.000000 0.000000
vn 0.000000 1.000000 0.000000
vn 0.000000 1.000000 0.000000
vn 0.000000 1.000000 0.000000
vn 0.000000 1.000000 0.000000
vn 1.000000 0.000000 0.000000
vn 1.000000 0.000000 0.000000
vn 1.000000 0.000000 0.000000
vn 1.000000 0.000000 0.000000
vn -1.000000 0.000000 0.000000
vn -1.000000 0.000000 0.000000
vn -1.000000 0.000000 0.000000
vn -1.000000 0.000000 0.000000
vn -1.000000 0.000000 0.000000
vn -1.000000 0.000000 0.000000
vn -1.000000 0.000000 0.000000
vn -1.000000 0.000000 0.000000
vn -1.000000 0.000000 0.000000
vn -1.000000 0.000000 0.000000
vn -1.000000 0.000000 0.000000
vn -1.000000 0.000000 0.000000
vn -1.000000 0.000000 0.000000
vn -1.000000 0.000000 0.000000
vn -1.000000 0.000000 0.000000
vn -1.000000 0.000000 0.000000
vn -1.000000 0.000000 0.000000
vn -1.000000 0.000000 0.000000
vn -1.000000 0.000000 0.000000
vn -1.000000 0.000000 0.000000
vn 0.000000 -1.000000 0.000000
vn 0.000000 -1.000000 0.000000
vn 0.000000 -1.000000 0.000000
vn 0.000000 -1.000000 0.000000
vn 0.000000 0.000000 1.000000
vn 0.000000 0.000000 1.000000
vn 0.000000 0.000000 1.000000
vn 0.000000 0.000000 1.000000
vn 0.000000 1.000000 0.000000
vn 0.000000 1.000000 0.000000
vn 0.000000 1.000000 0.000000
vn 0.000000 1.000000 0.000000
vn 0.000000 0.000000 -1.000000
vn 0.000000 0.000000 -1.000000
vn 0.000000 0.000000 -1.000000
vn 0.000000 0.000000 -1.000000
vn 0.000000 0.000000 1.000000
vn 0.000000 0.000000 1.000000
vn 0.000000 0.000000 1.000000
vn 0.000000 0.000000 1.000000
vn 0.000000 0.000000 1.000000
vn 0.000000 0.000000 1.000000
vn 0.000000 0.000000 1.000000
vn 0.000000 0.000000 1.000000
vn 0.000000 0.000000 1.000000
vn 0.000000 0.000000 1.000000
vn 0.000000 0.000000 1.000000
vn 0.000000 0.000000 1.000000
vn 0.000000 0.000000 1.000000
vn 0.000000 0.000000 1.000000
vn 0.000000 0.000000 1.000000
vn 0.000000 0.000000 1.000000
vn 0.000000 0.000000 1.000000
vn 0.000000 0.000000 1.000000
vn 0.000000 0.000000 1.000000
vn 0.000000 0.000000 1.000000
vn 0.000000 -1.000000 0.000000
vn 0.000000 -1.000000 0.000000
vn 0.000000 -1.000000 0.000000
vn 0.000000 -1.000000 0.000000
vn 1.000000 0.000000 0.000000
vn 1.000000 0.000000 0.000000
vn 1.000000 0.000000 0.000000
vn 1.000000 0.000000 0.000000
vn 0.000000 1.000000 0.000000
vn 0.000000 1.000000 0.000000
vn 0.000000 1.000000 0.000000
vn 0.000000 1.000000 0.000000
vn -1.000000 0.000000 0.000000
vn -1.000000 0.000000 0.000000
vn -1.000000 0.000000 0.000000
vn -1.000000 0.000000 0.000000
vn 1.000000 0.000000 0.000000
vn 1.000000 0.000000 0.000000
vn 1.000000 0.000000 0.000000
vn 1.000000 0.000000 0.000000
vn 1.000000 0.000000 0.000000
vn 1.000000 0.000000 0.000000
vn 1.000000 0.000000 0.000000
vn 1.000000 0.000000 0.000000
vn 1.000000 0.000000 0.000000
vn 1.000000 0.000000 0.000000
vn 1.000000 0.000000 0.000000
vn 1.000000 0.000000 0.000000
vn 1.000000 0.000000 0.000000
vn 1.000000 0.000000 0.000000
vn 1.000000 0.000000 0.000000
vn 1.000000 0.000000 0.000000
vn 1.000000 0.000000 0.000000
vn 1.000000 0.000000 0.000000
vn 1.000000 0.000000 0.000000
vn 1.000000 0.000000 0.000000
vn 0.000000 -1.000000 0.000000
vn 0.000000 -1.000000 0.000000
vn 0.000000 -1.000000 0.000000
vn 0.000000 -1.000000 0.000000
vn 0.000000 0.000000 -1.000000
vn 0.000000 0.000000 -1.000000
vn 0.000000 0.000000 -1.000000
vn 0.000000 0.000000 -1.000000
vn 0.000000 1.000000 0.000000
vn 0.000000 1.000000 0.000000
vn 0.000000 1.000000 0.000000
vn 0.000000 1.000000 0.000000
vn 0.000000 0.000000 1.000000
vn 0.000000 0.000000 1.000000
vn 0.000000 0.000000 1.000000
vn 0.000000 0.000000 1.000000
vn 0.000000 -1.000000 0.000000
vn 0.000000 -1.000000 0.000000
vn 0.000000 -1.000000 0.000000
vn 0.000000 -1.000000 0.000000
vn 0.000000 1.000000 0.000000
vn 0.000000 1.000000 0.000000
vn 0.000000 1.000000 0.000000
vn 0.000000 1.000000 0.000000
vn 0.000000 1.000000 0.000000
vn 0.000000 1.000000 0.000000
vn 0.000000 1.000000 0.000000
vn 0.000000 1.000000 0.000000
vn 0.000000 1.000000 0.000000
vn 0.000000 1.000000 0.000000
vn 0.000000 1.000000 0.000000
vn 0.000000 1.000000 0.000000
vn 0.000000 1.000000 0.000000
vn 0.000000 1.000000 0.000000
vn 0.000000 1.000000 0.000000
vn 0.000000 1.000000 0.000000
vn 0.000000 1.000000 0.000000
vn 0.000000 1.000000 0.000000
vn 0.000000 1.000000 0.000000
vn 0.000000 1.000000 0.000000
vn 0.000000 0.000000 1.000000
vn 0.000000 0.000000 1.000000
vn 0.000000 -1.000000 0.000000
vn 0.000000 -1.000000 0.000000
vn 0.000000 0.000000 1.000000
vn 0.000000 0.000000 1.000000
vn 0.000000 1.000000 0.000000
vn 0.000000 1.000000 0.000000
vn 0.000000 0.000000 1.000000
vn 0.000000 0.000000 1.000000
vn 0.000000 -1.000000 0.000000
vn 0.000000 -1.000000 0.000000
vn 0.000000 0.000000 -1.000000
vn 0.000000 0.000000 -1.000000
vn 0.000000 1.000000 0.000000
vn 0.000000 1.000000 0.000000
vn 0.000000 0.000000 -1.000000
vn 0.000000 0.000000 -1.000000
vn 0.000000 -1.000000 0.000000
vn 0.000000 -1.000000 0.000000
vn 0.000000 0.000000 -1.000000
vn 0.000000 0.000000 -1.000000
vn 0.000000 1.000000 0.000000
vn 0.000000 1.000000 0.000000
vn 0.000000 1.000000 0.000000
vn 0.000000 1.000000 0.000000
vn 0.000000 1.000000 0.000000
vn 0.000000 1.000000 0.000000
vn 0.000000 1.000000 0.000000
vn 0.000000 1.000000 0.000000
vn 1.000000 0.000000 0.000000
vn 1.000000 0.000000 0.000000
vn 0.000000 -1.000000 0.000000
vn 0.000000 -1.000000 0.000000
vn 1.000000 0.000000 0.000000
vn 1.000000 0.000000 0.000000
vn 0.000000 1.000000 0.000000
vn 0.000000 1.000000 0.000000
vn 1.000000 0.000000 0.000000
vn 1.000000 0.000000 0.000000
vn 0.000000 -1.000000 0.000000
vn 0.000000 -1.000000 0.000000
vn 0.000000 -1.000000 0.000000
vn -1.000000 0.000000 0.000000
vn -1.000000 0.000000 0.000000
vn 0.000000 1.000000 0.000000
vn 0.000000 1.000000 0.000000
vn -1.000000 0.000000 0.000000
vn -1.000000 0.000000 0.000000
vn 0.000000 -1.000000 0.000000
vn 0.000000 -1.000000 0.000000
vn -1.000000 0.000000 0.000000
vn -1.000000 0.000000 0.000000
vn 0.000000 1.000000 0.000000
vn 0.000000 1.000000 0.000000
vn 0.000000 1.000000 0.000000
vn 0.000000 1.000000 0.000000
vn 0.000000 1.000000 0.000000
s 1
g TempA_Plinth_01
usemtl initialShadingGroup
f 54/1/1 10/2/2 11/3/3 53/4/4
s 2
f 56/79/5 2/6/6 6/7/7 55/8/8
s off
f 2/123/9 4/89/10 7/114/11 6/124/12
s 3
f 4/113/13 51/83/14 52/12/15 7/10/16
s off
f 3/111/17 1/81/18 5/126/19 8/16/20
s 4
f 55/8/21 6/7/22 10/2/23 54/1/24
s off
f 6/124/25 7/114/26 11/3/27 10/2/28
s 5
f 7/10/29 52/12/30 53/4/31 11/3/32
s off
f 8/16/33 5/126/34 9/17/35 12/18/36
s 6
f 70/19/37 20/20/38 21/21/39 69/22/40
s 7
f 72/91/41 1/14/42 16/24/43 71/25/44
s off
f 1/127/45 3/93/46 17/108/47 16/128/48
s 8
f 3/107/49 67/27/50 68/28/51 17/26/52
s off
f 14/109/53 13/78/54 15/130/55 18/32/56
s 9
f 71/25/57 16/24/58 20/20/59 70/19/60
s off
f 16/128/61 17/108/62 21/21/63 20/20/64
s 10
f 17/26/65 68/28/66 69/22/67 21/21/68
s off
f 18/32/69 15/130/70 19/33/71 22/34/72
s 11
f 29/35/73 47/36/74 48/37/75 32/38/76
s 12
f 23/101/77 45/77/78 46/41/79 25/42/80
s off
f 13/103/81 14/84/82 27/106/83 26/104/84
s 13
f 50/85/85 24/87/86 28/100/87 49/48/88
s off
f 24/99/89 23/86/90 25/102/91 28/47/92
s 14
f 25/42/93 46/41/94 47/36/95 29/35/96
s off
f 26/104/97 27/106/98 31/49/99 30/50/100
s 15
f 49/48/101 28/100/102 32/38/103 48/37/104
s off
f 28/47/105 25/102/106 29/35/107 32/38/108
s 16
f 37/51/109 62/52/110 63/53/111 40/54/112
s 17
f 2/121/113 60/55/114 61/56/115 33/57/116
s off
f 23/119/117 24/98/118 35/118/119 34/120/120
s 18
f 65/97/121 4/96/122 36/116/123 64/62/124
s off
f 4/115/125 2/88/126 33/122/127 36/61/128
s 19
f 33/57/129 61/56/130 62/52/131 37/51/132
s off
f 34/120/133 35/118/134 39/63/135 38/64/136
s 20
f 64/62/137 36/116/138 40/54/139 63/53/140
s off
f 36/61/141 33/122/142 37/51/143 40/54/144
s 21
f 65/60/145 66/65/146 51/11/147 4/9/148
s 22
f 58/66/149 45/40/150 23/76/151 41/67/152
s 23
f 60/75/153 2/80/154 43/68/155 59/69/156
s 24
f 2/80/157 56/5/158 57/70/159 43/68/160
s 25
f 1/90/161 72/23/162 73/71/163 44/72/164
s 26
f 74/73/165 59/69/166 43/68/167 57/70/168
s 12
f 45/77/78 13/30/169 26/44/170 46/41/79
s 14
f 47/36/95 46/41/94 26/44/171 30/50/172
s 11
f 48/37/75 47/36/74 30/50/173 31/49/174
s 15
f 27/43/175 49/48/101 48/37/104 31/49/176
s 13
f 14/105/177 50/85/85 49/48/88 27/43/178
s 21
f 51/11/147 66/65/146 67/94/179 3/13/180
s 3
f 52/12/15 51/83/14 3/82/181 8/112/182
s 5
f 53/4/31 52/12/30 8/112/183 12/18/184
s 1
f 9/17/185 54/1/1 53/4/4 12/18/186
s 4
f 5/15/187 55/8/21 54/1/24 9/17/188
s 2
f 1/125/189 56/79/5 55/8/8 5/15/190
s 24
f 57/70/159 56/5/158 1/90/191 44/72/192
s 26
f 74/73/165 57/70/168 44/72/193 73/71/194
s 22
f 13/92/195 45/40/150 58/66/149 42/74/196
s 23
f 23/76/197 60/75/153 59/69/156 41/67/198
s 17
f 61/56/115 60/55/114 23/39/199 34/59/200
s 19
f 62/52/131 61/56/130 34/59/201 38/64/202
s 16
f 63/53/111 62/52/110 38/64/203 39/63/204
s 20
f 35/58/205 64/62/137 63/53/140 39/63/206
s 18
f 24/117/207 65/97/121 64/62/124 35/58/208
s 21
f 24/46/209 50/45/210 66/65/146 65/60/145
f 67/94/179 66/65/146 50/45/210 14/29/211
s 8
f 68/28/51 67/27/50 14/95/212 18/110/213
s 10
f 69/22/67 68/28/66 18/110/214 22/34/215
s 6
f 19/33/216 70/19/37 69/22/40 22/34/217
s 9
f 15/31/218 71/25/57 70/19/60 19/33/219
s 7
f 13/129/220 72/91/41 71/25/44 15/31/221
s 25
f 73/71/163 72/23/162 13/92/222 42/74/223
s 26
f 58/66/224 74/73/165 73/71/194 42/74/225
f 41/67/226 59/69/166 74/73/165 58/66/224
