# This file uses centimeters as units for non-parametric coordinates.

mtllib floor-block_curv_conv.mtl
g default
v -0.000000 -0.300001 5.000000
v 0.024078 -0.300001 4.509916
v 0.024078 0.000000 4.509916
v -0.000000 0.000000 5.000000
v 0.096073 -0.300001 4.024550
v 0.096073 0.000000 4.024550
v 0.215299 -0.300001 3.548578
v 0.215299 0.000000 3.548578
v 0.380604 -0.300001 3.086584
v 0.380604 0.000000 3.086584
v -0.000000 0.000000 -0.000000
v -0.000000 -0.300001 -0.000000
v 0.590394 -0.300001 2.643017
v 0.590394 0.000000 2.643017
v 0.842652 -0.300001 2.222151
v 0.842652 0.000000 2.222151
v 1.134949 -0.300001 1.828035
v 1.134949 0.000000 1.828035
v 1.464465 -0.300001 1.464468
v 1.464465 0.000000 1.464468
v 1.828035 -0.300001 1.134951
v 1.828035 0.000000 1.134951
v 2.222150 -0.300001 0.842654
v 2.222150 0.000000 0.842654
v 2.643016 -0.300001 0.590395
v 2.643016 0.000000 0.590395
v 3.086583 -0.300001 0.380604
v 3.086583 0.000000 0.380604
v 4.999998 0.000000 0.000002
v 5.000000 -0.300001 0.000001
v 3.548576 -0.300001 0.215299
v 3.548576 0.000000 0.215299
v 4.024546 -0.300001 0.096076
v 4.024546 0.000000 0.096076
v 4.509912 -0.300001 0.024078
v 4.509912 0.000000 0.024078
v -0.000000 0.000000 4.500000
v -0.000001 -0.300001 4.499999
v -0.000000 -0.300001 4.050000
v -0.000000 0.000000 4.050000
v -0.000000 0.000000 3.645000
v -0.000000 -0.300001 3.645000
v 4.500000 0.000000 0.000000
v 4.500000 -0.300001 0.000000
v 4.050000 0.000000 0.000000
v 4.050000 -0.300001 0.000000
v 3.645000 0.000000 0.000000
v 3.645000 -0.300001 0.000000
vt 0.000000 0.534511
vt 0.000000 0.433920
vt 0.068033 0.433920
vt 0.068033 0.534511
vt 0.000000 0.329150
vt 0.068033 0.329150
vt 0.000000 0.629954
vt 0.068033 0.629954
vt 0.000000 0.221211
vt 0.068033 0.221211
vt 0.000000 0.719331
vt 0.068033 0.719331
vt 0.000000 0.111141
vt 0.068033 0.111141
vt 0.000000 0.801780
vt 0.068033 0.801780
vt 0.000000 0.000000
vt 0.068033 0.000000
vt 0.000000 0.876507
vt 0.068033 0.876507
vt 0.000000 0.942793
vt 0.068033 0.942793
vt 0.000000 1.000000
vt 0.068033 1.000000
vt 0.060000 0.729000
vt 0.000000 0.729000
vt 0.000000 0.000000
vt 0.060000 0.000000
vt 0.060000 0.810000
vt 0.000000 0.810000
vt 0.060000 0.900000
vt 0.000000 0.900000
vt 0.060000 1.000000
vt 0.000000 1.000000
vt 0.617317 0.076121
vt 0.000000 0.000000
vt 0.729000 0.000000
vt 0.709716 0.043060
vt 0.444430 0.168530
vt 0.528603 0.118079
vt 0.810000 0.000000
vt 0.804910 0.019215
vt 0.292894 0.292893
vt 0.365607 0.226990
vt 0.900000 0.000000
vt 0.901983 0.004816
vt 0.168531 0.444430
vt 0.226990 0.365607
vt 1.000000 0.000000
vt 0.076121 0.617317
vt 0.118079 0.528603
vt 0.043060 0.709715
vt 0.000000 0.729000
vt 0.019215 0.804909
vt 0.000000 0.810000
vt 0.004816 0.901983
vt 0.000000 0.900000
vt 0.000000 1.000000
vt 0.000000 1.000000
vt 0.000000 0.792071
vt 0.127281 0.792071
vt 0.127281 1.000000
vt 0.000000 0.586145
vt 0.127281 0.586145
vt 0.000000 0.384204
vt 0.127281 0.384204
vt 0.000000 0.188193
vt 0.127281 0.188193
vt 0.000000 0.000000
vt 0.127281 0.000000
vt 0.000000 1.000000
vt 0.000000 0.900000
vt 0.060000 0.900000
vt 0.060000 1.000000
vt 0.000000 0.810000
vt 0.060000 0.810000
vt 0.000000 0.729000
vt 0.060000 0.729000
vt 0.000000 0.000000
vt 0.060000 0.000000
vn 0.998795 0.000000 0.049071
vn 0.998795 0.000000 0.049071
vn 0.998795 0.000000 0.049071
vn 0.998795 0.000000 0.049071
vn 0.989177 0.000000 0.146727
vn 0.989177 0.000000 0.146727
vn 0.989177 0.000000 0.146727
vn 0.989177 0.000000 0.146727
vn 0.970031 0.000000 0.242983
vn 0.970031 0.000000 0.242983
vn 0.970031 0.000000 0.242983
vn 0.970031 0.000000 0.242983
vn 0.941543 0.000000 0.336892
vn 0.941543 0.000000 0.336892
vn 0.941543 0.000000 0.336892
vn 0.941543 0.000000 0.336892
vn -1.000000 0.000002 0.000001
vn -1.000000 0.000002 0.000000
vn -1.000000 0.000002 -0.000000
vn -1.000000 0.000002 0.000001
vn 0.903991 0.000000 0.427552
vn 0.903991 0.000000 0.427552
vn 0.903991 0.000000 0.427552
vn 0.903991 0.000000 0.427552
vn 0.857728 0.000000 0.514104
vn 0.857728 0.000000 0.514104
vn 0.857728 0.000000 0.514104
vn 0.857728 0.000000 0.514104
vn 0.803207 0.000000 0.595700
vn 0.803207 0.000000 0.595700
vn 0.803207 0.000000 0.595700
vn 0.803207 0.000000 0.595700
vn 0.740953 0.000000 0.671557
vn 0.740953 0.000000 0.671557
vn 0.740953 0.000000 0.671557
vn 0.740953 0.000000 0.671557
vn 0.671555 0.000000 0.740955
vn 0.671555 0.000000 0.740955
vn 0.671555 0.000000 0.740955
vn 0.671555 0.000000 0.740955
vn 0.595701 0.000000 0.803206
vn 0.595701 0.000000 0.803206
vn 0.595701 0.000000 0.803206
vn 0.595701 0.000000 0.803206
vn 0.514106 0.000000 0.857727
vn 0.514106 0.000000 0.857727
vn 0.514106 0.000000 0.857727
vn 0.514106 0.000000 0.857727
vn 0.427554 0.000000 0.903990
vn 0.427554 0.000000 0.903990
vn 0.427554 0.000000 0.903990
vn 0.427554 0.000000 0.903990
vn 0.000000 0.000000 -1.000000
vn 0.000000 0.000000 -1.000000
vn 0.000000 0.000000 -1.000000
vn 0.000000 0.000000 -1.000000
vn 0.336892 0.000000 0.941544
vn 0.336892 0.000000 0.941544
vn 0.336892 0.000000 0.941544
vn 0.336892 0.000000 0.941544
vn 0.242978 0.000000 0.970032
vn 0.242978 0.000000 0.970032
vn 0.242978 0.000000 0.970032
vn 0.242978 0.000000 0.970032
vn 0.146732 0.000000 0.989176
vn 0.146732 0.000000 0.989176
vn 0.146732 0.000000 0.989176
vn 0.146732 0.000000 0.989176
vn 0.049067 -0.000003 0.998796
vn 0.049067 -0.000003 0.998796
vn 0.049067 -0.000003 0.998796
vn 0.049067 -0.000003 0.998796
vn 0.000000 1.000000 0.000000
vn 0.000000 1.000000 0.000000
vn 0.000000 1.000000 0.000000
vn 0.000000 1.000000 0.000000
vn -1.000000 0.000001 -0.000001
vn -1.000000 0.000001 -0.000001
vn -1.000000 -0.000000 0.000000
vn -1.000000 -0.000000 0.000000
vn 0.000000 1.000000 0.000000
vn 0.000000 1.000000 0.000000
vn 0.000000 1.000000 0.000000
vn 0.000000 1.000000 0.000000
vn 0.000000 1.000000 0.000000
vn -1.000000 -0.000000 0.000000
vn -1.000000 -0.000000 0.000000
vn 0.000000 1.000000 0.000000
vn 0.000000 1.000000 0.000000
vn 0.000000 1.000000 0.000000
vn 0.000000 1.000000 0.000000
vn 0.000000 1.000000 0.000000
vn 0.000000 1.000000 0.000000
vn 0.000000 1.000000 0.000000
vn 0.000000 1.000000 0.000000
vn 0.000000 1.000000 0.000000
vn 0.000000 1.000000 0.000000
vn 0.000000 1.000000 0.000000
vn 0.000000 1.000000 0.000000
vn 0.000000 1.000000 0.000000
vn 0.000000 1.000000 0.000000
vn 0.000000 1.000000 0.000000
vn 0.000000 1.000000 0.000000
vn 0.000000 1.000000 0.000000
vn 0.000000 1.000000 0.000000
vn 0.000000 1.000000 0.000000
vn 0.000003 0.000002 -1.000000
vn 0.000003 0.000002 -1.000000
vn 0.000002 0.000001 -1.000000
vn 0.000002 0.000001 -1.000000
vn 0.000000 0.000000 -1.000000
vn 0.000000 0.000000 -1.000000
vn 0.000000 1.000000 0.000000
vn 0.000000 1.000000 0.000000
vn 0.000000 1.000000 0.000000
vn 0.000000 1.000000 0.000000
vn 0.000000 1.000000 0.000000
vn 0.000000 1.000000 0.000000
s off
g floor_tile1
usemtl initialShadingGroup
f 1/59/1 2/60/2 3/61/3 4/62/4
f 2/60/5 5/63/6 6/64/7 3/61/8
f 5/63/9 7/65/10 8/66/11 6/64/12
f 7/65/13 9/67/14 10/68/15 8/66/16
s 1
f 4/71/17 37/72/18 38/73/19 1/74/20
s off
f 9/67/21 13/69/22 14/70/23 10/68/24
f 13/23/25 15/21/26 16/22/27 14/24/28
f 15/21/29 17/19/30 18/20/31 16/22/32
f 17/19/33 19/15/34 20/16/35 18/20/36
f 19/15/37 21/11/38 22/12/39 20/16/40
f 21/11/41 23/7/42 24/8/43 22/12/44
f 23/7/45 25/1/46 26/4/47 24/8/48
f 25/1/49 27/2/50 28/3/51 26/4/52
s 2
f 47/25/53 48/26/54 12/27/55 11/28/56
s off
f 27/2/57 31/5/58 32/6/59 28/3/60
f 31/5/61 33/9/62 34/10/63 32/6/64
f 33/9/65 35/13/66 36/14/67 34/10/68
f 35/13/69 30/17/70 29/18/71 36/14/72
s 3
f 10/35/73 11/36/74 41/37/75 8/38/76
s 1
f 39/76/77 40/75/78 41/77/79 42/78/80
s 3
f 3/46/81 37/45/82 4/49/83
s 1
f 38/73/19 37/72/18 40/75/78 39/76/77
s 3
f 6/42/84 40/41/85 37/45/82 3/46/81
s 1
f 42/78/80 41/77/79 11/79/86 12/80/87
s 3
f 8/38/76 41/37/75 40/41/85 6/42/84
s 5
f 29/58/88 43/57/89 36/56/90
s off
f 16/39/91 11/36/92 10/35/93 14/40/94
f 20/43/95 11/36/96 16/39/97 18/44/98
f 24/47/99 11/36/100 20/43/101 22/48/102
f 28/50/103 11/36/104 24/47/105 26/51/106
s 2
f 29/33/107 30/34/108 44/32/109 43/31/110
f 43/31/110 44/32/109 46/30/111 45/29/112
f 45/29/112 46/30/111 48/26/54 47/25/53
s 5
f 36/56/90 43/57/89 45/55/113 34/54/114
f 34/54/114 45/55/113 47/53/115 32/52/116
f 32/52/116 47/53/115 11/36/117 28/50/118
