# This file uses centimeters as units for non-parametric coordinates.

mtllib TempA_ThickWall_02.mtl
g default
v -1.000000 0.000000 0.000000
v 0.000000 0.000000 0.000000
v -1.000000 5.000000 0.000000
v 0.000000 5.000000 0.000000
v -1.000000 5.000000 -10.000000
v 0.000000 5.000000 -10.000000
v -1.000000 0.000000 -10.000000
v 0.000000 0.000000 -10.000000
vt 0.882894 0.355283
vt 0.882894 0.336597
vt 0.882894 0.448712
vt 0.882894 0.243169
vt 0.696037 0.448712
vt 0.696037 0.243169
vt 0.696037 0.355283
vt 0.696037 0.336597
vt 0.602942 0.467397
vt 0.602942 0.448712
vt 0.976656 0.448712
vt 0.976656 0.467397
vt 0.882894 0.467397
vt 0.696037 0.467397
vn 0.000000 0.000000 1.000000
vn 0.000000 0.000000 1.000000
vn 0.000000 0.000000 1.000000
vn 0.000000 0.000000 1.000000
vn 0.000000 1.000000 0.000000
vn 0.000000 1.000000 0.000000
vn 0.000000 1.000000 0.000000
vn 0.000000 1.000000 0.000000
vn 0.000000 0.000000 -1.000000
vn 0.000000 0.000000 -1.000000
vn 0.000000 0.000000 -1.000000
vn 0.000000 0.000000 -1.000000
vn 0.000000 -1.000000 0.000000
vn 0.000000 -1.000000 0.000000
vn 0.000000 -1.000000 0.000000
vn 0.000000 -1.000000 0.000000
vn 1.000000 0.000000 0.000000
vn 1.000000 0.000000 0.000000
vn 1.000000 0.000000 0.000000
vn 1.000000 0.000000 0.000000
vn -1.000000 0.000000 0.000000
vn -1.000000 0.000000 0.000000
vn -1.000000 0.000000 0.000000
vn -1.000000 0.000000 0.000000
s off
g TempA_ThickWall_02
usemtl lambert29SG
f 1/11/1 2/12/2 4/13/3 3/3/4
f 3/3/5 4/13/6 6/14/7 5/5/8
f 5/5/9 6/14/10 8/9/11 7/10/12
f 7/7/13 8/8/14 2/2/15 1/1/16
f 2/2/17 8/8/18 6/6/19 4/4/20
f 7/7/21 1/1/22 3/3/23 5/5/24
