# This file uses centimeters as units for non-parametric coordinates.

mtllib TempA_ThickWall_01.mtl
g default
v -16.000000 0.000000 -2.000000
v -15.000000 0.000000 -2.000000
v -16.000000 5.000000 -2.000000
v -15.000000 5.000000 -2.000000
v -16.000000 5.000000 -7.000000
v -15.000000 5.000000 -7.000000
v -16.000000 0.000000 -7.000000
v -15.000000 0.000000 -7.000000
vt 0.237308 0.251721
vt 0.270641 0.251721
vt 0.237308 0.418388
vt 0.270641 0.418388
vt 0.237308 0.585054
vt 0.270641 0.585054
vt 0.237308 0.751721
vt 0.270641 0.751721
vt 0.237308 0.918388
vt 0.270641 0.918388
vt 0.436986 0.251721
vt 0.436986 0.418388
vt 0.070319 0.251721
vt 0.070319 0.418388
vn 0.000000 0.000000 1.000000
vn 0.000000 0.000000 1.000000
vn 0.000000 0.000000 1.000000
vn 0.000000 0.000000 1.000000
vn 0.000000 1.000000 0.000000
vn 0.000000 1.000000 0.000000
vn 0.000000 1.000000 0.000000
vn 0.000000 1.000000 0.000000
vn 0.000000 0.000000 -1.000000
vn 0.000000 0.000000 -1.000000
vn 0.000000 0.000000 -1.000000
vn 0.000000 0.000000 -1.000000
vn 0.000000 -1.000000 0.000000
vn 0.000000 -1.000000 0.000000
vn 0.000000 -1.000000 0.000000
vn 0.000000 -1.000000 0.000000
vn 1.000000 0.000000 0.000000
vn 1.000000 0.000000 0.000000
vn 1.000000 0.000000 0.000000
vn 1.000000 0.000000 0.000000
vn -1.000000 0.000000 0.000000
vn -1.000000 0.000000 0.000000
vn -1.000000 0.000000 0.000000
vn -1.000000 0.000000 0.000000
s off
g TempA_ThickWall_01
usemtl lambert30SG
f 1/1/1 2/2/2 4/4/3 3/3/4
f 3/3/5 4/4/6 6/6/7 5/5/8
f 5/5/9 6/6/10 8/8/11 7/7/12
f 7/7/13 8/8/14 2/10/15 1/9/16
f 2/2/17 8/11/18 6/12/19 4/4/20
f 7/13/21 1/1/22 3/3/23 5/14/24
