# This file uses centimeters as units for non-parametric coordinates.

mtllib TempA_CurvedWall_02.mtl
g default
v -4.781258 0.000000 -5.680283
v -3.781258 0.000000 -5.680283
v -3.781258 5.000000 -5.680283
v -4.781258 5.000000 -5.680283
v 0.000000 5.000000 -9.000000
v 0.000000 5.000000 -10.000000
v 0.000000 0.000000 -10.000000
v 0.000000 0.000000 -9.000000
v -0.861694 5.000000 -8.975800
v -0.982208 5.000000 -9.968506
v -0.982208 0.000000 -9.968506
v -0.861694 0.000000 -8.975800
v -1.638733 5.000000 -8.784271
v -1.993347 5.000000 -9.719299
v -1.993347 0.000000 -9.719299
v -1.638733 0.000000 -8.784271
v -2.347351 5.000000 -8.412354
v -2.915421 5.000000 -9.235352
v -2.915421 0.000000 -9.235352
v -2.347351 0.000000 -8.412354
v -2.946381 5.000000 -7.881653
v -3.694901 5.000000 -8.544800
v -3.694901 0.000000 -8.544800
v -2.946381 0.000000 -7.881653
v -3.401001 5.000000 -7.223038
v -4.286461 5.000000 -7.687744
v -4.286461 0.000000 -7.687744
v -3.401001 0.000000 -7.223038
v -3.684799 5.000000 -6.474747
v -4.655735 5.000000 -6.714050
v -4.655735 0.000000 -6.714050
v -3.684799 0.000000 -6.474747
v -4.730940 5.000000 -6.197166
v -4.730940 0.000000 -6.197166
v -3.745468 0.000000 -6.077515
v -3.745468 5.000000 -6.077515
v -0.491119 5.000000 -9.995056
v -0.491119 0.000000 -9.995056
v -0.430847 0.000000 -8.998688
v -0.430847 5.000000 -8.998688
v -1.487762 5.000000 -9.876404
v -1.487762 0.000000 -9.876404
v -1.250214 0.000000 -8.912537
v -1.250214 5.000000 -8.912537
v -2.454376 5.000000 -9.510681
v -2.454376 0.000000 -9.510681
v -1.993042 0.000000 -8.631683
v -1.993042 5.000000 -8.631683
v -3.337646 5.000000 -8.890076
v -3.337646 0.000000 -8.890076
v -2.679352 0.000000 -8.147003
v -2.679352 5.000000 -8.147003
v -4.033974 5.000000 -8.116272
v -4.033974 0.000000 -8.116272
v -3.216995 0.000000 -7.552353
v -3.216995 5.000000 -7.552353
v -4.492695 5.000000 -7.200912
v -4.492695 0.000000 -7.200912
v -3.564499 0.000000 -6.848892
v -3.564499 5.000000 -6.848892
vt 0.617307 0.310878
vt 0.615438 0.017230
vt 0.511773 0.332685
vt 0.511638 0.311551
vt 0.442123 0.413043
vt 0.510665 0.158734
vt 0.709242 0.411343
vt 0.616334 0.158061
vt 0.616200 0.136927
vt 0.442519 0.394830
vt 0.510798 0.179502
vt 0.708444 0.390589
vt 0.616467 0.178830
vt 0.616084 0.118709
vt 0.446462 0.378382
vt 0.510938 0.201510
vt 0.703041 0.369254
vt 0.616607 0.200838
vt 0.615976 0.101796
vt 0.454226 0.363356
vt 0.511078 0.223518
vt 0.692690 0.349832
vt 0.616747 0.222846
vt 0.615869 0.084883
vt 0.465361 0.350625
vt 0.511218 0.245526
vt 0.677991 0.333452
vt 0.616887 0.244854
vt 0.615761 0.067970
vt 0.479220 0.340928
vt 0.511358 0.267535
vt 0.659799 0.321065
vt 0.617027 0.266862
vt 0.615653 0.051056
vt 0.509877 0.034815
vt 0.511498 0.289543
vt 0.639171 0.313392
vt 0.617167 0.288870
vt 0.615546 0.034143
vt 0.509769 0.017902
vt 0.494996 0.334830
vt 0.509984 0.051729
vt 0.510092 0.068642
vt 0.510200 0.085555
vt 0.510307 0.102469
vt 0.510415 0.119382
vt 0.489807 0.314343
vt 0.469279 0.322278
vt 0.451247 0.334895
vt 0.436757 0.351461
vt 0.426653 0.371013
vt 0.421523 0.392415
vt 0.510531 0.137600
vt 0.420989 0.413178
vt 0.617442 0.332012
vt 0.634244 0.333944
vt 0.650097 0.339841
vt 0.664077 0.349360
vt 0.675373 0.361948
vt 0.683329 0.376874
vt 0.687481 0.393270
vt 0.688108 0.411478
vt 0.511568 0.300547
vt 0.500723 0.312947
vt 0.628239 0.312135
vt 0.617237 0.299874
vt 0.615492 0.025686
vt 0.625843 0.332978
vt 0.503384 0.333757
vt 0.509823 0.026359
vt 0.510732 0.169118
vt 0.421256 0.402797
vt 0.708843 0.400966
vt 0.616400 0.168445
vt 0.616142 0.127818
vt 0.687794 0.402374
vt 0.442321 0.403936
vt 0.510473 0.128491
vt 0.510868 0.190506
vt 0.424088 0.381714
vt 0.705743 0.379922
vt 0.616536 0.189834
vt 0.616030 0.110253
vt 0.685405 0.385072
vt 0.444490 0.386606
vt 0.510361 0.110925
vt 0.511008 0.212514
vt 0.431705 0.361237
vt 0.697865 0.359543
vt 0.616677 0.211842
vt 0.615922 0.093340
vt 0.679351 0.369411
vt 0.450344 0.370869
vt 0.510253 0.094012
vt 0.511148 0.234522
vt 0.444002 0.343178
vt 0.685340 0.341642
vt 0.616817 0.233850
vt 0.615815 0.076426
vt 0.669725 0.355654
vt 0.459794 0.356990
vt 0.510146 0.077099
vt 0.511288 0.256531
vt 0.460263 0.328586
vt 0.668895 0.327259
vt 0.616957 0.255858
vt 0.615707 0.059513
vt 0.657087 0.344600
vt 0.472290 0.345776
vt 0.510038 0.060186
vt 0.511428 0.278539
vt 0.479543 0.318310
vt 0.649485 0.317229
vt 0.617097 0.277866
vt 0.615600 0.042600
vt 0.642171 0.336892
vt 0.487108 0.337879
vt 0.509931 0.043272
vn 0.000000 -1.000000 0.000000
vn 0.000000 -1.000000 0.000000
vn 0.000000 -1.000000 0.000000
vn 0.000000 -1.000000 0.000000
vn 0.995966 0.000000 0.089734
vn 0.992710 0.000000 0.120528
vn 0.992710 0.000000 0.120528
vn 0.995966 0.000000 0.089734
vn 0.000000 1.000000 0.000000
vn 0.000000 1.000000 0.000000
vn 0.000000 1.000000 0.000000
vn 0.000000 1.000000 0.000000
vn -0.995295 0.000000 -0.096890
vn -0.992709 0.000000 -0.120537
vn -0.992709 0.000000 -0.120537
vn -0.995295 0.000000 -0.096890
vn 0.000000 0.000000 1.000000
vn 0.000000 0.000000 1.000000
vn 0.000000 0.000000 1.000000
vn 0.000000 0.000000 1.000000
vn 0.000000 1.000000 0.000000
vn 0.000000 1.000000 0.000000
vn 0.000000 1.000000 0.000000
vn 0.000000 1.000000 0.000000
vn -0.118217 0.000000 -0.992988
vn -0.118217 0.000000 -0.992988
vn -0.032048 0.000000 -0.999486
vn -0.032048 0.000000 -0.999486
vn 0.000000 -1.000000 0.000000
vn 0.000000 -1.000000 0.000000
vn 0.000000 -1.000000 0.000000
vn 0.000000 -1.000000 0.000000
vn 0.104567 0.000000 0.994518
vn 0.104567 0.000000 0.994518
vn 0.028074 0.000000 0.999606
vn 0.028074 0.000000 0.999606
vn 0.000000 1.000000 0.000000
vn 0.000000 1.000000 0.000000
vn 0.000000 1.000000 0.000000
vn 0.000000 1.000000 0.000000
vn -0.353873 0.000000 -0.935294
vn -0.353873 0.000000 -0.935294
vn -0.239300 0.000000 -0.970946
vn -0.239300 0.000000 -0.970946
vn 0.000000 -1.000000 0.000000
vn 0.000000 -1.000000 0.000000
vn 0.000000 -1.000000 0.000000
vn 0.000000 -1.000000 0.000000
vn 0.353653 0.000000 0.935377
vn 0.353653 0.000000 0.935377
vn 0.239322 0.000000 0.970940
vn 0.239322 0.000000 0.970940
vn 0.000000 1.000000 0.000000
vn 0.000000 1.000000 0.000000
vn 0.000000 1.000000 0.000000
vn 0.000000 1.000000 0.000000
vn -0.574902 0.000000 -0.818223
vn -0.574902 0.000000 -0.818223
vn -0.464728 0.000000 -0.885454
vn -0.464728 0.000000 -0.885454
vn 0.000000 -1.000000 0.000000
vn 0.000000 -1.000000 0.000000
vn 0.000000 -1.000000 0.000000
vn 0.000000 -1.000000 0.000000
vn 0.576863 0.000000 0.816841
vn 0.576863 0.000000 0.816841
vn 0.464729 0.000000 0.885453
vn 0.464729 0.000000 0.885453
vn 0.000000 1.000000 0.000000
vn 0.000000 1.000000 0.000000
vn 0.000000 1.000000 0.000000
vn 0.000000 1.000000 0.000000
vn -0.743340 0.000000 -0.668914
vn -0.743340 0.000000 -0.668914
vn -0.663119 0.000000 -0.748514
vn -0.663119 0.000000 -0.748514
vn 0.000000 -1.000000 0.000000
vn 0.000000 -1.000000 0.000000
vn 0.000000 -1.000000 0.000000
vn 0.000000 -1.000000 0.000000
vn 0.741767 0.000000 0.670657
vn 0.741767 0.000000 0.670657
vn 0.663127 0.000000 0.748507
vn 0.663127 0.000000 0.748507
vn 0.000000 1.000000 0.000000
vn 0.000000 1.000000 0.000000
vn 0.000000 1.000000 0.000000
vn 0.000000 1.000000 0.000000
vn -0.894020 0.000000 -0.448027
vn -0.894020 0.000000 -0.448027
vn -0.822994 0.000000 -0.568050
vn -0.822994 0.000000 -0.568050
vn 0.000000 -1.000000 0.000000
vn 0.000000 -1.000000 0.000000
vn 0.000000 -1.000000 0.000000
vn 0.000000 -1.000000 0.000000
vn 0.896572 0.000000 0.442899
vn 0.896572 0.000000 0.442899
vn 0.822977 0.000000 0.568074
vn 0.822977 0.000000 0.568074
vn 0.000000 1.000000 0.000000
vn 0.000000 1.000000 0.000000
vn 0.000000 1.000000 0.000000
vn 0.000000 1.000000 0.000000
vn -0.972968 0.000000 -0.230940
vn -0.972968 0.000000 -0.230940
vn -0.935016 0.000000 -0.354606
vn -0.935016 0.000000 -0.354606
vn 0.000000 -1.000000 0.000000
vn 0.000000 -1.000000 0.000000
vn 0.000000 -1.000000 0.000000
vn 0.000000 -1.000000 0.000000
vn 0.973567 0.000000 0.228404
vn 0.973567 0.000000 0.228404
vn 0.935013 0.000000 0.354615
vn 0.935013 0.000000 0.354615
vn 1.000000 0.000000 0.000000
vn 1.000000 0.000000 0.000000
vn 1.000000 0.000000 0.000000
vn 1.000000 0.000000 0.000000
vn -0.010066 0.000000 -0.999949
vn -0.010066 0.000000 -0.999949
vn 0.000000 -1.000000 0.000000
vn 0.000000 -1.000000 0.000000
vn 0.003046 0.000000 0.999995
vn 0.003046 0.000000 0.999995
vn 0.000000 1.000000 0.000000
vn 0.000000 1.000000 0.000000
s 1
g TempA_CurvedWall_02
usemtl lambert29SG
f 1/1/1 34/65/2 35/68/3 2/55/4
s 2
f 2/2/5 35/67/6 36/70/7 3/40/8
s 3
f 3/3/9 36/69/10 33/64/11 4/4/12
s 4
f 4/4/13 33/63/14 34/66/15 1/1/16
s off
f 4/4/17 1/1/18 2/55/19 3/3/20
s 3
f 9/10/21 40/77/22 37/72/23 10/52/24
s 4
f 11/13/25 10/11/26 37/71/27 38/74/28
s 1
f 12/61/29 11/12/30 38/73/31 39/76/32
s 2
f 9/46/33 12/14/34 39/75/35 40/78/36
s 3
f 13/15/37 44/85/38 41/80/39 14/51/40
s 4
f 15/18/41 14/16/42 41/79/43 42/82/44
s 1
f 16/60/45 15/17/46 42/81/47 43/84/48
s 2
f 13/45/49 16/19/50 43/83/51 44/86/52
s 3
f 17/20/53 48/93/54 45/88/55 18/50/56
s 4
f 19/23/57 18/21/58 45/87/59 46/90/60
s 1
f 20/59/61 19/22/62 46/89/63 47/92/64
s 2
f 17/44/65 20/24/66 47/91/67 48/94/68
s 3
f 21/25/69 52/101/70 49/96/71 22/49/72
s 4
f 23/28/73 22/26/74 49/95/75 50/98/76
s 1
f 24/58/77 23/27/78 50/97/79 51/100/80
s 2
f 21/43/81 24/29/82 51/99/83 52/102/84
s 3
f 25/30/85 56/109/86 53/104/87 26/48/88
s 4
f 27/33/89 26/31/90 53/103/91 54/106/92
s 1
f 28/57/93 27/32/94 54/105/95 55/108/96
s 2
f 25/42/97 28/34/98 55/107/99 56/110/100
s 3
f 29/41/101 60/117/102 57/112/103 30/47/104
s 4
f 31/38/105 30/36/106 57/111/107 58/114/108
s 1
f 32/56/109 31/37/110 58/113/111 59/116/112
s 2
f 29/35/113 32/39/114 59/115/115 60/118/116
s off
f 6/6/117 5/53/118 8/9/119 7/8/120
s 4
f 33/63/14 30/36/106 31/38/105 34/66/15
s 1
f 35/68/3 34/65/2 31/37/110 32/56/109
s 2
f 36/70/7 35/67/6 32/39/114 29/35/113
s 3
f 33/64/11 36/69/10 29/41/101 30/47/104
s 4
f 38/74/28 37/71/27 6/6/121 7/8/122
s 1
f 39/76/32 38/73/31 7/7/123 8/62/124
s 2
f 40/78/36 39/75/35 8/9/125 5/53/126
s 3
f 37/72/23 40/77/22 5/5/127 6/54/128
s 4
f 42/82/44 41/79/43 10/11/26 11/13/25
s 1
f 43/84/48 42/81/47 11/12/30 12/61/29
s 2
f 44/86/52 43/83/51 12/14/34 9/46/33
s 3
f 41/80/39 44/85/38 9/10/21 10/52/24
s 4
f 46/90/60 45/87/59 14/16/42 15/18/41
s 1
f 47/92/64 46/89/63 15/17/46 16/60/45
s 2
f 48/94/68 47/91/67 16/19/50 13/45/49
s 3
f 45/88/55 48/93/54 13/15/37 14/51/40
s 4
f 50/98/76 49/95/75 18/21/58 19/23/57
s 1
f 51/100/80 50/97/79 19/22/62 20/59/61
s 2
f 52/102/84 51/99/83 20/24/66 17/44/65
s 3
f 49/96/71 52/101/70 17/20/53 18/50/56
s 4
f 54/106/92 53/103/91 22/26/74 23/28/73
s 1
f 55/108/96 54/105/95 23/27/78 24/58/77
s 2
f 56/110/100 55/107/99 24/29/82 21/43/81
s 3
f 53/104/87 56/109/86 21/25/69 22/49/72
s 4
f 58/114/108 57/111/107 26/31/90 27/33/89
s 1
f 59/116/112 58/113/111 27/32/94 28/57/93
s 2
f 60/118/116 59/115/115 28/34/98 25/42/97
s 3
f 57/112/103 60/117/102 25/30/85 26/48/88
