# This file uses centimeters as units for non-parametric coordinates.

mtllib TempA_ThinCeiling_01.mtl
g default
v -16.000000 6.000000 11.000000
v -21.000000 6.000000 11.000000
v -21.000000 6.000000 16.000000
v -16.000000 6.000000 16.000000
vt 0.879506 0.498863
vt 0.879506 0.901906
vt 0.476463 0.498863
vt 0.476463 0.901906
vn 0.000000 1.000000 0.000000
vn 0.000000 1.000000 0.000000
vn 0.000000 1.000000 0.000000
vn 0.000000 1.000000 0.000000
s off
g TempA_ThinCeiling_01
usemtl lambert31SG
f 4/3/1 1/1/2 2/2/3 3/4/4
