# This file uses centimeters as units for non-parametric coordinates.

mtllib TempA_SlantedWall_01.mtl
g default
v -10.000000 0.000000 -8.000000
v -9.000000 0.000000 -8.000000
v -10.000000 1.000000 -8.000000
v -9.000000 1.000000 -8.000000
v -10.000000 5.000000 -15.000000
v -9.000000 5.000000 -15.000000
v -10.000000 0.000000 -15.000000
v -9.000000 0.000000 -15.000000
vt 0.181659 0.030274
vt 0.202572 0.030265
vt 0.181668 0.051187
vt 0.202581 0.051178
vt 0.181739 0.219798
vt 0.202652 0.219789
vt 0.181783 0.324366
vt 0.202696 0.324358
vt 0.181844 0.470762
vt 0.202758 0.470753
vt 0.348968 0.030203
vt 0.349012 0.134771
vt 0.035263 0.030335
vt 0.035307 0.134903
vn 0.000000 0.000000 1.000000
vn 0.000000 0.000000 1.000000
vn 0.000000 0.000000 1.000000
vn 0.000000 0.000000 1.000000
vn 0.000000 0.868243 0.496139
vn 0.000000 0.868243 0.496139
vn 0.000000 0.868243 0.496139
vn 0.000000 0.868243 0.496139
vn 0.000000 0.000000 -1.000000
vn 0.000000 0.000000 -1.000000
vn 0.000000 0.000000 -1.000000
vn 0.000000 0.000000 -1.000000
vn 0.000000 -1.000000 0.000000
vn 0.000000 -1.000000 0.000000
vn 0.000000 -1.000000 0.000000
vn 0.000000 -1.000000 0.000000
vn 1.000000 0.000000 0.000000
vn 1.000000 0.000000 0.000000
vn 1.000000 0.000000 0.000000
vn 1.000000 0.000000 0.000000
vn -1.000000 0.000000 0.000000
vn -1.000000 0.000000 0.000000
vn -1.000000 0.000000 0.000000
vn -1.000000 0.000000 0.000000
s off
g TempA_SlantedWall_01
usemtl lambert29SG
f 1/1/1 2/2/2 4/4/3 3/3/4
f 3/3/5 4/4/6 6/6/7 5/5/8
f 5/5/9 6/6/10 8/8/11 7/7/12
f 7/7/13 8/8/14 2/10/15 1/9/16
f 2/2/17 8/11/18 6/12/19 4/4/20
f 7/13/21 1/1/22 3/3/23 5/14/24
