# This file uses centimeters as units for non-parametric coordinates.

mtllib TempA_Entrance_02.mtl
g default
v -10.000000 0.000000 12.000000
v -9.000000 0.000000 12.000000
v -10.000000 5.000000 12.000000
v -9.000000 5.000000 12.000000
v -10.000000 5.000000 6.000000
v -9.000000 5.000000 6.000000
v -10.000000 0.000000 6.000000
v -9.000000 0.000000 6.000000
v -9.000000 3.000000 6.000000
v -10.000000 3.000000 6.000000
v -10.000000 3.000000 12.000000
v -9.000000 3.000000 12.000000
v -9.000000 5.000000 7.000000
v -10.000000 5.000000 7.000000
v -10.000000 3.000000 7.000000
v -10.000000 0.000000 7.000000
v -9.000000 0.000000 7.000000
v -9.000000 3.000000 7.000000
v -9.000000 5.000000 11.000000
v -10.000000 5.000000 11.000000
v -10.000000 3.000000 11.000000
v -10.000000 0.000000 11.000000
v -9.000000 0.000000 11.000000
v -9.000000 3.000000 11.000000
vt 0.531978 0.549631
vt 0.388502 0.689178
vt 0.711065 0.919052
vt 0.531978 0.597193
vt 0.412283 0.736741
vt 0.508197 0.597193
vt 0.389291 0.597193
vt 0.187879 0.919052
vt 0.531189 0.689178
vt 0.389291 0.549631
vt 0.568377 0.942833
vt 0.568377 0.919052
vt 0.592159 0.919052
vt 0.531978 0.479854
vt 0.497034 0.919052
vt 0.497034 0.942833
vt 0.389291 0.476721
vt 0.306785 0.919052
vt 0.413072 0.597193
vt 0.164098 0.919052
vt 0.401909 0.942833
vt 0.330566 0.942833
vt 0.507408 0.618439
vt 0.401909 0.919052
vt 0.068973 0.919052
vt 0.507408 0.736741
vt 0.388502 0.736741
vt 0.663502 0.919052
vt 0.045192 0.942833
vt 0.663502 0.942833
vt 0.388502 0.617231
vt 0.412283 0.617231
vt 0.412283 0.689178
vt 0.507408 0.689178
vt 0.330566 0.919052
vt 0.531189 0.618439
vt 0.235441 0.919052
vt 0.531189 0.736741
vt 0.592159 0.942833
vt 0.508197 0.479854
vt 0.508197 0.549631
vt 0.413072 0.549631
vt 0.413072 0.476721
vt 0.187879 0.942833
vt 0.235441 0.942833
vt 0.306785 0.942833
vt 0.711065 0.942833
vt 0.045192 0.919052
vt 0.068973 0.942833
vt 0.164098 0.942833
vn 0.000000 0.000000 1.000000
vn 0.000000 0.000000 1.000000
vn 0.000000 0.000000 1.000000
vn 0.000000 0.000000 1.000000
vn 0.000000 1.000000 0.000000
vn 0.000000 1.000000 0.000000
vn 0.000000 1.000000 0.000000
vn 0.000000 1.000000 0.000000
vn 0.000000 0.000000 -1.000000
vn 0.000000 0.000000 -1.000000
vn 0.000000 0.000000 -1.000000
vn 0.000000 0.000000 -1.000000
vn 0.000000 -1.000000 0.000000
vn 0.000000 -1.000000 0.000000
vn 0.000000 -1.000000 0.000000
vn 0.000000 -1.000000 0.000000
vn 1.000000 0.000000 0.000000
vn 1.000000 0.000000 0.000000
vn 1.000000 0.000000 0.000000
vn 1.000000 0.000000 0.000000
vn -1.000000 0.000000 0.000000
vn -1.000000 0.000000 0.000000
vn -1.000000 0.000000 0.000000
vn -1.000000 0.000000 0.000000
vn 0.000000 0.000000 -1.000000
vn 0.000000 0.000000 -1.000000
vn -1.000000 0.000000 0.000000
vn -1.000000 0.000000 0.000000
vn 0.000000 0.000000 1.000000
vn 0.000000 0.000000 1.000000
vn 1.000000 0.000000 0.000000
vn 1.000000 0.000000 0.000000
vn 0.000000 1.000000 0.000000
vn 0.000000 1.000000 0.000000
vn 0.000000 1.000000 0.000000
vn 0.000000 1.000000 0.000000
vn -1.000000 0.000000 0.000000
vn -1.000000 0.000000 0.000000
vn -1.000000 0.000000 0.000000
vn -1.000000 0.000000 0.000000
vn -1.000000 0.000000 0.000000
vn -1.000000 0.000000 0.000000
vn 0.000000 -1.000000 0.000000
vn 0.000000 -1.000000 0.000000
vn 0.000000 -1.000000 0.000000
vn 0.000000 -1.000000 0.000000
vn 1.000000 0.000000 0.000000
vn 1.000000 0.000000 0.000000
vn 1.000000 0.000000 0.000000
vn 1.000000 0.000000 0.000000
vn 1.000000 0.000000 0.000000
vn 1.000000 0.000000 0.000000
vn 0.000000 -1.000000 0.000000
vn 0.000000 -1.000000 0.000000
vn 0.000000 -1.000000 0.000000
vn 0.000000 -1.000000 0.000000
vn 0.000000 0.000000 -1.000000
vn 0.000000 0.000000 -1.000000
vn 0.000000 0.000000 -1.000000
vn 0.000000 0.000000 -1.000000
vn 0.000000 0.000000 1.000000
vn 0.000000 0.000000 1.000000
vn 0.000000 0.000000 1.000000
vn 0.000000 0.000000 1.000000
s 1
g TempA_Entrance_02
usemtl lambert29SG
f 11/30/1 12/28/2 4/3/3 3/47/4
s 2
f 3/29/5 4/48/6 19/25/7 20/49/8
s 3
f 5/44/9 6/8/10 9/37/11 10/45/12
s off
f 22/11/13 23/12/14 2/13/15 1/39/16
s 4
f 12/2/17 24/33/18 19/5/19 4/27/20
s 5
f 21/41/21 11/1/22 3/4/23 20/6/24
s 3
f 7/46/25 10/45/12 9/37/11 8/18/26
s 5
f 1/14/27 11/1/22 21/41/21 22/40/28
s 1
f 12/28/2 11/30/1 1/39/29 2/13/30
s 4
f 24/33/18 12/2/17 2/31/31 23/32/32
s 2
f 14/50/33 13/20/34 6/8/35 5/44/36
s 5
f 10/10/37 15/42/38 14/19/39 5/7/40
f 15/42/38 10/10/37 7/17/41 16/43/42
s off
f 7/46/43 8/18/44 17/35/45 16/22/46
s 4
f 8/36/47 9/9/48 18/34/49 17/23/50
f 13/26/51 18/34/49 9/9/48 6/38/52
s 2
f 20/49/8 19/25/7 13/20/34 14/50/33
s 5
f 15/42/38 21/41/21 20/6/24 14/19/39
s 4
f 19/5/19 24/33/18 18/34/49 13/26/51
s off
f 21/16/53 15/21/54 18/24/55 24/15/56
f 22/11/57 21/16/58 24/15/59 23/12/60
f 15/21/61 16/22/62 17/35/63 18/24/64
